<svg version="1.1" xmlns="http://www.w3.org/2000/svg" viewBox="0 0 2860.3664879753815 2119.4090021225757" width="2860.3664879753815" height="2119.4090021225757">
    <!-- svg-source:excalidraw -->

    <defs>
        <style class="style-fonts">
            @font-face {
            font-family: "Virgil";
            src: url("https://excalidraw.com/Virgil.woff2");
            }
            @font-face {
            font-family: "Cascadia";
            src: url("https://excalidraw.com/Cascadia.woff2");
            }
            @font-face {
            font-family: "Assistant";
            src: url("https://excalidraw.com/Assistant-Regular.woff2");
            }
        </style>

    </defs>
    <rect x="0" y="0" width="2860.3664879753815" height="2119.4090021225757" fill="#ffffff"></rect><g stroke-linecap="round" transform="translate(10 96.63425233289684) rotate(0 368.7222490011209 355.47674681252505)"><path d="M0.8 -0.93 L738.03 -0.53 L738.99 709.09 L-0.02 711.45" stroke="none" stroke-width="0" fill="#eeeeee"></path><path d="M0 0 C285.22 1.28, 571.24 1.92, 737.44 0 M0 0 C288.6 2.62, 576.72 2.59, 737.44 0 M737.44 0 C735.12 205.46, 735.7 410.98, 737.44 710.95 M737.44 0 C736.83 164.05, 736.88 328.26, 737.44 710.95 M737.44 710.95 C485.59 711.66, 234.16 712.45, 0 710.95 M737.44 710.95 C516.77 711.82, 296.73 711.77, 0 710.95 M0 710.95 C1.09 499.85, 1.26 288.79, 0 0 M0 710.95 C1.12 534.73, 0.99 358.83, 0 0" stroke="#000000" stroke-width="1" fill="none"></path></g><g transform="translate(149.23332343436005 133.08526472682013) rotate(0 157.5 22.378565416641123)"><text x="0" y="31.36579728796419" font-family="Virgil, Segoe UI Emoji" font-size="35.80570466662579px" fill="#1e1e1e" text-anchor="start" style="white-space: pre;" direction="ltr" dominant-baseline="alphabetic">Маркетплей Газон</text></g><g stroke-linecap="round" transform="translate(43.933991469235025 244.99386799669924) rotate(0 135.23994564735608 28.395676630308174)"><path d="M1.85 -0.87 L269.63 0.97 L269.41 57.88 L0.4 57.38" stroke="none" stroke-width="0" fill="#b2f2bb"></path><path d="M0 0 C107.53 -1.2, 214.33 -0.69, 270.48 0 M0 0 C57.23 0.99, 115.41 1.4, 270.48 0 M270.48 0 C270.74 13.33, 270.08 27.74, 270.48 56.79 M270.48 0 C271.45 18.58, 270.82 35.59, 270.48 56.79 M270.48 56.79 C187.55 56.11, 105.46 53.73, 0 56.79 M270.48 56.79 C213.48 57.5, 157.35 57.74, 0 56.79 M0 56.79 C-1.39 38.58, 0.31 20.49, 0 0 M0 56.79 C-0.02 43.83, 0.48 32.5, 0 0" stroke="#000000" stroke-width="1" fill="none"></path></g><g transform="translate(90.60841727010984 248.20539875256907) rotate(0 88.56551984648127 20.77549319760311)"><text x="88.56551984648137" y="29.78433739040073" font-family="Virgil, Segoe UI Emoji" font-size="31.461628355094863px" fill="#000000" text-anchor="middle" style="white-space: pre;" direction="ltr" dominant-baseline="alphabetic">UserService</text></g><g stroke-linecap="round" transform="translate(49.6176392010384 358.5396543799419) rotate(0 135.23994564735608 28.39567663030818)"><path d="M-0.79 -1.38 L269.16 1.47 L269.37 57.27 L1.65 56.23" stroke="none" stroke-width="0" fill="#b2f2bb"></path><path d="M0 0 C75.01 -2.61, 149.95 -2.9, 270.48 0 M0 0 C92.1 -1.85, 184.48 -1.52, 270.48 0 M270.48 0 C269.08 20.89, 268.61 40.37, 270.48 56.79 M270.48 0 C271.37 14.84, 271.24 30.15, 270.48 56.79 M270.48 56.79 C168.6 58.41, 66.42 57.64, 0 56.79 M270.48 56.79 C193.5 55.91, 114.9 55.16, 0 56.79 M0 56.79 C1.58 42.03, 1.29 30.95, 0 0 M0 56.79 C0.29 41.95, 0.19 26.95, 0 0" stroke="#000000" stroke-width="1" fill="none"></path></g><g transform="translate(71.0575817966369 361.75118513581174) rotate(0 113.80000305175781 20.775493197603105)"><text x="113.80000305175781" y="29.78433739040073" font-family="Virgil, Segoe UI Emoji" font-size="31.461628355094863px" fill="#000000" text-anchor="middle" style="white-space: pre;" direction="ltr" dominant-baseline="alphabetic">ProductService</text></g><g stroke-linecap="round" transform="translate(40.32149294743931 468.76538852975636) rotate(0 135.23994564735608 28.39567663030818)"><path d="M0.54 1.75 L270.26 -0.97 L271.71 57.21 L-1.3 56.35" stroke="none" stroke-width="0" fill="#b2f2bb"></path><path d="M0 0 C97.99 1.49, 199.04 2.12, 270.48 0 M0 0 C66.48 -2.21, 134.33 -1.75, 270.48 0 M270.48 0 C269.57 15.96, 269.04 36.15, 270.48 56.79 M270.48 0 C270.33 13.78, 271.06 28.36, 270.48 56.79 M270.48 56.79 C201.86 55.3, 134.05 56.81, 0 56.79 M270.48 56.79 C193.5 56.16, 118.28 55.83, 0 56.79 M0 56.79 C-1.21 46.37, 0.36 35.18, 0 0 M0 56.79 C-0.26 35.26, 0.15 14.59, 0 0" stroke="#000000" stroke-width="1" fill="none"></path></g><g transform="translate(79.8281088218464 471.9769192856262) rotate(0 95.73332977294922 20.775493197603105)"><text x="95.73332977294922" y="29.78433739040073" font-family="Virgil, Segoe UI Emoji" font-size="31.461628355094863px" fill="#000000" text-anchor="middle" style="white-space: pre;" direction="ltr" dominant-baseline="alphabetic">OrderService</text></g><g stroke-linecap="round" transform="translate(413.4953639847631 231.04964861630117) rotate(0 135.23994564735608 28.395676630308174)"><path d="M1.93 1.15 L269.84 -0.32 L269.95 56.24 L-0.37 56.97" stroke="none" stroke-width="0" fill="#b2f2bb"></path><path d="M0 0 C61.02 -1.88, 125.18 -2.03, 270.48 0 M0 0 C63.44 -1.63, 127.11 -2.48, 270.48 0 M270.48 0 C270.28 12.3, 271.68 27.67, 270.48 56.79 M270.48 0 C270.49 17.71, 270.56 35.59, 270.48 56.79 M270.48 56.79 C211 56.06, 153.66 55.86, 0 56.79 M270.48 56.79 C209.99 55.46, 150.64 55.6, 0 56.79 M0 56.79 C-0.58 37.89, -0.38 19.2, 0 0 M0 56.79 C-1.17 38.09, -0.44 17.55, 0 0" stroke="#000000" stroke-width="1" fill="none"></path></g><g transform="translate(432.41864398270536 234.2611793721709) rotate(0 116.31666564941406 20.77549319760311)"><text x="116.31666564941406" y="29.78433739040073" font-family="Virgil, Segoe UI Emoji" font-size="31.461628355094863px" fill="#000000" text-anchor="middle" style="white-space: pre;" direction="ltr" dominant-baseline="alphabetic">PaymentService</text></g><g stroke-linecap="round" transform="translate(429.43161470521864 357.2116334865707) rotate(0 135.23994564735608 28.39567663030818)"><path d="M-1.1 0.41 L271.68 -1.77 L270.5 57.33 L-1.03 58.55" stroke="none" stroke-width="0" fill="#b2f2bb"></path><path d="M0 0 C63.4 0.55, 127.54 -1.39, 270.48 0 M0 0 C71.5 1.84, 143.6 2.33, 270.48 0 M270.48 0 C269.83 15.81, 270.26 31.64, 270.48 56.79 M270.48 0 C270.21 15.79, 271.23 29.78, 270.48 56.79 M270.48 56.79 C199.03 56.91, 131.2 56.96, 0 56.79 M270.48 56.79 C164.95 58.04, 60.07 58.43, 0 56.79 M0 56.79 C1.78 41.59, 0.68 31.08, 0 0 M0 56.79 C0.76 42.01, 0.76 25.55, 0 0" stroke="#000000" stroke-width="1" fill="none"></path></g><g transform="translate(462.31323057962527 360.4231642424405) rotate(0 102.35832977294922 20.775493197603105)"><text x="102.35832977294922" y="29.78433739040073" font-family="Virgil, Segoe UI Emoji" font-size="31.461628355094863px" fill="#000000" text-anchor="middle" style="white-space: pre;" direction="ltr" dominant-baseline="alphabetic">ReviewService</text></g><g stroke-linecap="round" transform="translate(432.08765649196084 478.0615347833552) rotate(0 135.23994564735608 28.39567663030818)"><path d="M-0.16 -1.16 L269.2 1.38 L268.49 55.18 L-1.72 55.78" stroke="none" stroke-width="0" fill="#b2f2bb"></path><path d="M0 0 C91.07 -1.69, 180.43 -1.6, 270.48 0 M0 0 C97.63 -0.42, 195.53 -0.48, 270.48 0 M270.48 0 C271.16 15.9, 270.41 29.17, 270.48 56.79 M270.48 0 C270.33 20.54, 269.39 40.26, 270.48 56.79 M270.48 56.79 C202.35 59.99, 135.1 57.61, 0 56.79 M270.48 56.79 C208.16 57.66, 145.04 56.67, 0 56.79 M0 56.79 C1 39.11, -1.16 22.12, 0 0 M0 56.79 C-0.42 37.89, 0.76 17.24, 0 0" stroke="#000000" stroke-width="1" fill="none"></path></g><g transform="translate(462.9859349640242 481.27306553922506) rotate(0 104.34166717529297 20.775493197603105)"><text x="104.34166717529297" y="29.78433739040073" font-family="Virgil, Segoe UI Emoji" font-size="31.461628355094863px" fill="#000000" text-anchor="middle" style="white-space: pre;" direction="ltr" dominant-baseline="alphabetic">SearchService</text></g><g stroke-linecap="round" transform="translate(819.4287863051645 542.6408572183016) rotate(0 489.642487812157 472.05320302797327)"><path d="M1.07 -0.97 L981.09 1.12 L979.13 942.83 L0.22 943.7" stroke="none" stroke-width="0" fill="#eeeeee"></path><path d="M0 0 C287.19 1.13, 572.81 1.03, 979.28 0 M0 0 C299.28 -0.15, 598.54 -0.74, 979.28 0 M979.28 0 C976.36 209.03, 976.77 415.82, 979.28 944.11 M979.28 0 C982.73 284.29, 982.33 568.8, 979.28 944.11 M979.28 944.11 C780.23 947.37, 583.12 947.24, 0 944.11 M979.28 944.11 C648.82 943.21, 317.98 943.62, 0 944.11 M0 944.11 C-3.66 750.43, -2.73 555.78, 0 0 M0 944.11 C-0.53 609.75, -0.55 276.37, 0 0" stroke="#000000" stroke-width="1" fill="none"></path></g><g transform="translate(1002.9948948551726 591.0457593910971) rotate(0 208.02236729052288 29.717481041503262)"><text x="0" y="41.65202142777098" font-family="Virgil, Segoe UI Emoji" font-size="47.54796966640523px" fill="#1e1e1e" text-anchor="start" style="white-space: pre;" direction="ltr" dominant-baseline="alphabetic">Маркетплей Газон</text></g><g stroke-linecap="round" transform="translate(887.7593673116285 686.0137905865039) rotate(0 135.23994564735608 28.395676630308174)"><path d="M-0.15 -1.27 L270.7 -0.4 L270.86 57.58 L-0.78 55.53" stroke="none" stroke-width="0" fill="#b2f2bb"></path><path d="M0 0 C58.99 2.8, 117.95 2.72, 270.48 0 M0 0 C95.32 1.33, 191.84 2.21, 270.48 0 M270.48 0 C270.95 24.34, 269.49 47.23, 270.48 56.79 M270.48 0 C269.45 17.23, 271.19 32.97, 270.48 56.79 M270.48 56.79 C180.81 56.17, 89.66 57.42, 0 56.79 M270.48 56.79 C197.63 58.96, 125.91 58.02, 0 56.79 M0 56.79 C0.58 37.56, 0.13 16.4, 0 0 M0 56.79 C1.05 43.42, 1.42 31.59, 0 0" stroke="#000000" stroke-width="1" fill="none"></path></g><g transform="translate(934.4337931125033 689.2253213423737) rotate(0 88.56551984648138 20.77549319760311)"><text x="88.56551984648137" y="29.78433739040073" font-family="Virgil, Segoe UI Emoji" font-size="31.461628355094863px" fill="#000000" text-anchor="middle" style="white-space: pre;" direction="ltr" dominant-baseline="alphabetic">UserService</text></g><g stroke-linecap="round" transform="translate(856.2584300290368 815.4958276902016) rotate(0 135.23994564735608 28.395676630308174)"><path d="M0.38 0.79 L269.7 -1.26 L270.45 58.12 L-0.85 58.71" stroke="none" stroke-width="0" fill="#b2f2bb"></path><path d="M0 0 C95.85 0.38, 188.51 -2.22, 270.48 0 M0 0 C59.37 0.01, 116.55 -0.6, 270.48 0 M270.48 0 C270.01 21.49, 271.06 41.41, 270.48 56.79 M270.48 0 C271.25 20.08, 271.09 38.69, 270.48 56.79 M270.48 56.79 C205.87 56.24, 143.39 55.67, 0 56.79 M270.48 56.79 C165.07 56.88, 58.71 56.62, 0 56.79 M0 56.79 C-1.64 37.66, 1.76 23.24, 0 0 M0 56.79 C-0.59 41.88, -0.4 28.04, 0 0" stroke="#000000" stroke-width="1" fill="none"></path></g><g transform="translate(877.6983726246349 818.7073584460715) rotate(0 113.80000305175781 20.77549319760311)"><text x="113.80000305175781" y="29.78433739040073" font-family="Virgil, Segoe UI Emoji" font-size="31.461628355094863px" fill="#000000" text-anchor="middle" style="white-space: pre;" direction="ltr" dominant-baseline="alphabetic">ProductService</text></g><g stroke-linecap="round" transform="translate(857.5864509224075 1342.7201223585914) rotate(0 135.23994564735608 28.395676630308174)"><path d="M-0.03 1.33 L269.63 1.91 L271.96 56.22 L0.85 57.22" stroke="none" stroke-width="0" fill="#ffec99"></path><path d="M0 0 C103.27 1.59, 209.6 3.24, 270.48 0 M0 0 C103.15 -0.59, 205.74 -0.05, 270.48 0 M270.48 0 C271.51 18.01, 269.26 33.65, 270.48 56.79 M270.48 0 C269.95 22.09, 270.75 44.24, 270.48 56.79 M270.48 56.79 C206.45 54.09, 139.14 55.42, 0 56.79 M270.48 56.79 C165.75 58.18, 60.27 57.36, 0 56.79 M0 56.79 C-1.52 46.71, 0.57 32.88, 0 0 M0 56.79 C0.13 43.76, -0.45 29.31, 0 0" stroke="#000000" stroke-width="1" fill="none"></path></g><g transform="translate(897.0930667968146 1345.9316531144614) rotate(0 95.73332977294922 20.77549319760311)"><text x="95.73332977294922" y="29.78433739040073" font-family="Virgil, Segoe UI Emoji" font-size="31.461628355094863px" fill="#000000" text-anchor="middle" style="white-space: pre;" direction="ltr" dominant-baseline="alphabetic">OrderService</text></g><g stroke-linecap="round" transform="translate(1344.9701187896596 670.7415503127345) rotate(0 135.23994564735597 28.395676630308174)"><path d="M1.48 -0.57 L271.33 0.43 L269.74 55.94 L-0.27 56.37" stroke="none" stroke-width="0" fill="#b2f2bb"></path><path d="M0 0 C80.85 -3.35, 159.25 -0.83, 270.48 0 M0 0 C61.68 0.45, 122.74 0.36, 270.48 0 M270.48 0 C271.9 21.72, 270.81 41.49, 270.48 56.79 M270.48 0 C270 16.62, 269.63 32.78, 270.48 56.79 M270.48 56.79 C202.85 57, 133.32 57.72, 0 56.79 M270.48 56.79 C180.13 56, 91.63 54.86, 0 56.79 M0 56.79 C-1.59 34.85, -0.72 12.86, 0 0 M0 56.79 C0.21 38.18, -0.21 19.19, 0 0" stroke="#000000" stroke-width="1" fill="none"></path></g><g transform="translate(1363.8933987876019 673.9530810686043) rotate(0 116.31666564941406 20.77549319760311)"><text x="116.31666564941406" y="29.78433739040073" font-family="Virgil, Segoe UI Emoji" font-size="31.461628355094863px" fill="#000000" text-anchor="middle" style="white-space: pre;" direction="ltr" dominant-baseline="alphabetic">PaymentService</text></g><g stroke-linecap="round" transform="translate(1360.9063695101147 795.5755142896328) rotate(0 135.23994564735597 28.395676630308174)"><path d="M-0.74 -0.85 L270.21 -0.42 L271.71 56.31 L-0.31 57.42" stroke="none" stroke-width="0" fill="#b2f2bb"></path><path d="M0 0 C58.72 -0.31, 119.63 -1.88, 270.48 0 M0 0 C95.07 -1.38, 189.2 -0.07, 270.48 0 M270.48 0 C270.3 18.35, 270.03 34.87, 270.48 56.79 M270.48 0 C269.49 20.65, 270.35 42.74, 270.48 56.79 M270.48 56.79 C200.89 55.54, 129.18 55.47, 0 56.79 M270.48 56.79 C163.83 56.2, 55.72 55.26, 0 56.79 M0 56.79 C0.9 38.36, -1.14 21.46, 0 0 M0 56.79 C0.98 35.7, 0.67 15.39, 0 0" stroke="#000000" stroke-width="1" fill="none"></path></g><g transform="translate(1393.7879853845218 798.7870450455026) rotate(0 102.35832977294922 20.77549319760311)"><text x="102.35832977294922" y="29.78433739040073" font-family="Virgil, Segoe UI Emoji" font-size="31.461628355094863px" fill="#000000" text-anchor="middle" style="white-space: pre;" direction="ltr" dominant-baseline="alphabetic">ReviewService</text></g><g stroke-linecap="round" transform="translate(1363.5624112968578 916.4254155864173) rotate(0 135.23994564735597 28.395676630308174)"><path d="M1.23 -0.48 L270.17 0.63 L269.31 57.31 L-0.81 55.58" stroke="none" stroke-width="0" fill="#b2f2bb"></path><path d="M0 0 C106.44 -1.32, 211.92 1.4, 270.48 0 M0 0 C61.02 -1.66, 121.28 -2.11, 270.48 0 M270.48 0 C271.66 16.1, 272.11 35.09, 270.48 56.79 M270.48 0 C270.3 15.98, 270.76 31.19, 270.48 56.79 M270.48 56.79 C214.31 55.71, 154.35 56.28, 0 56.79 M270.48 56.79 C174.24 55.29, 77.98 55.75, 0 56.79 M0 56.79 C1.69 41.11, 2.27 28.61, 0 0 M0 56.79 C-0.61 40.95, -0.38 25.74, 0 0" stroke="#000000" stroke-width="1" fill="none"></path></g><g transform="translate(1394.4606897689207 919.6369463422872) rotate(0 104.34166717529297 20.77549319760311)"><text x="104.34166717529297" y="29.78433739040073" font-family="Virgil, Segoe UI Emoji" font-size="31.461628355094863px" fill="#000000" text-anchor="middle" style="white-space: pre;" direction="ltr" dominant-baseline="alphabetic">SearchService</text></g><g stroke-linecap="round" transform="translate(1290.4531476185682 1353.0638704163746) rotate(0 146.59623778388266 30.780102309308177)"><path d="M1.8 1.08 L293.7 0.07 L293.16 61.38 L1.79 63.03" stroke="none" stroke-width="0" fill="#b2f2bb"></path><path d="M0 0 C109.97 3.04, 218.32 3.04, 293.19 0 M0 0 C74.3 0, 147.09 -0.59, 293.19 0 M293.19 0 C292.18 13.63, 292.39 32.65, 293.19 61.56 M293.19 0 C293.26 24.09, 293.43 46.03, 293.19 61.56 M293.19 61.56 C228.82 63.2, 165.58 63.39, 0 61.56 M293.19 61.56 C225.6 63.81, 158.53 63.7, 0 61.56 M0 61.56 C-0.64 49.1, 0.76 33.15, 0 0 M0 61.56 C0.23 42.78, -0.26 25.3, 0 0" stroke="#000000" stroke-width="1" fill="none"></path></g><g transform="translate(1248.474496029469 1366.1027851403985) rotate(0 188.57488937298217 22.52004114830703)"><text x="188.57488937298217" y="32.28537090442061" font-family="Virgil, Segoe UI Emoji" font-size="34.10350639623908px" fill="#000000" text-anchor="middle" style="white-space: pre;" direction="ltr" dominant-baseline="alphabetic">OrderProcessingService</text></g><g stroke-linecap="round"><g transform="translate(1089.9341416277332 1004.7401350755299) rotate(0 41.62504950519303 55.80959929884693)" fill-rule="evenodd"><path d="M-94.85 20.9 C-94.85 20.9, -94.85 20.9, -94.85 20.9 M-94.85 20.9 C-94.85 20.9, -94.85 20.9, -94.85 20.9 M-95.11 27.3 C-93.12 25.97, -92.42 24.7, -88.55 19.75 M-95.11 27.3 C-93.35 24.98, -91.38 22.86, -88.55 19.75 M-94.72 32.94 C-90.9 28.25, -86.47 26.39, -82.91 19.35 M-94.72 32.94 C-90.96 27.72, -86.34 21.89, -82.91 19.35 M-94.98 39.34 C-90.44 31.72, -85.36 28.76, -76.61 18.2 M-94.98 39.34 C-90.53 34.28, -87.57 31.56, -76.61 18.2 M-95.24 45.73 C-90.13 40.04, -80.06 28.66, -70.31 17.06 M-95.24 45.73 C-88.52 38.15, -82.66 31.07, -70.31 17.06 M-95.5 52.13 C-85.15 41.16, -77.21 30.68, -64.67 16.66 M-95.5 52.13 C-85.68 41.49, -76.26 28.58, -64.67 16.66 M-95.76 58.53 C-87.64 47.23, -78.06 36.31, -58.37 15.51 M-95.76 58.53 C-83.05 42.92, -69.57 27.29, -58.37 15.51 M-96.03 64.93 C-85.78 53.63, -78.43 43.42, -52.73 15.12 M-96.03 64.93 C-81.33 48.29, -67.68 32.56, -52.73 15.12 M-96.29 71.33 C-84 56.88, -70.01 41.06, -46.43 13.97 M-96.29 71.33 C-78.18 51.53, -61.38 31.98, -46.43 13.97 M-95.89 76.97 C-76 52.76, -57.49 29.34, -40.13 12.82 M-95.89 76.97 C-80.11 58.21, -62.14 40.72, -40.13 12.82 M-96.15 83.37 C-71.45 56.59, -51.09 28.81, -34.48 12.42 M-96.15 83.37 C-73.47 57.68, -50.97 31.52, -34.48 12.42 M-93.79 86.75 C-77.21 70.1, -61.93 49.56, -28.19 11.27 M-93.79 86.75 C-75.55 67.48, -59.17 47.4, -28.19 11.27 M-88.8 87.11 C-64.73 57.84, -37.37 29.82, -22.54 10.88 M-88.8 87.11 C-65.54 59.99, -41.15 33.82, -22.54 10.88 M-84.47 88.22 C-57.02 55.52, -31.21 24.95, -16.24 9.73 M-84.47 88.22 C-65.45 66.33, -45.51 43.49, -16.24 9.73 M-80.14 89.33 C-56.58 63.26, -35.93 36.7, -9.94 8.58 M-80.14 89.33 C-57.15 65.14, -36.12 38.82, -9.94 8.58 M-75.16 89.7 C-55.37 67.49, -35.9 45.61, -4.3 8.19 M-75.16 89.7 C-52.48 63.12, -27.96 35.49, -4.3 8.19 M-70.82 90.81 C-56.65 72.23, -41.84 57.6, 2 7.04 M-70.82 90.81 C-55.02 72.19, -39.43 52.87, 2 7.04 M-66.49 91.92 C-46.01 67.89, -24.33 43.21, 7.64 6.64 M-66.49 91.92 C-50.06 73.19, -34.54 53.56, 7.64 6.64 M-62.16 93.04 C-44.33 71.11, -20.23 46.03, 13.94 5.49 M-62.16 93.04 C-37.41 64.86, -14.17 37.7, 13.94 5.49 M-57.18 93.4 C-38.82 74.45, -23.22 55.01, 20.24 4.34 M-57.18 93.4 C-36.47 69.35, -15.82 45.35, 20.24 4.34 M-52.84 94.51 C-24.95 65.21, 2.5 33.78, 25.88 3.95 M-52.84 94.51 C-32.36 70.61, -11.83 46.5, 25.88 3.95 M-48.51 95.63 C-18.71 60.56, 9.7 27.02, 32.18 2.8 M-48.51 95.63 C-30.56 75.04, -12.16 52.66, 32.18 2.8 M-43.53 95.99 C-22.91 73.39, -5.6 53.46, 37.82 2.41 M-43.53 95.99 C-17.44 64.54, 10.58 32.36, 37.82 2.41 M-39.2 97.1 C-7.35 64.09, 20.22 29.79, 44.12 1.26 M-39.2 97.1 C-21.67 77.35, -5.87 58.73, 44.12 1.26 M-34.86 98.22 C-4.32 61.78, 29.48 25.38, 50.42 0.11 M-34.86 98.22 C-13.12 74.03, 6.74 50.4, 50.42 0.11 M-30.53 99.33 C-9.43 74.79, 12.64 51.56, 55.41 0.47 M-30.53 99.33 C-7.66 72.56, 18.34 43.36, 55.41 0.47 M-25.55 99.69 C4.6 67.78, 33.2 32.34, 59.74 1.58 M-25.55 99.69 C2.54 66.45, 30.78 35.62, 59.74 1.58 M-21.22 100.81 C10.16 66.38, 39.55 32.26, 64.07 2.7 M-21.22 100.81 C8.31 70.17, 34.66 37.04, 64.07 2.7 M-16.88 101.92 C0.97 81.94, 21.02 61.56, 69.06 3.06 M-16.88 101.92 C11.8 68.78, 42.35 34.88, 69.06 3.06 M-11.9 102.28 C22.21 64.98, 55.05 25.76, 73.39 4.17 M-11.9 102.28 C20.72 66.73, 52.39 28.65, 73.39 4.17 M-7.57 103.4 C22.36 66.24, 52.4 31.96, 78.38 4.53 M-7.57 103.4 C17.63 74.28, 41.86 46.01, 78.38 4.53 M-3.24 104.51 C12.35 84.29, 30.27 62.25, 82.71 5.65 M-3.24 104.51 C18.15 80.95, 37.1 58.72, 82.71 5.65 M1.1 105.63 C18.84 86.31, 37.17 64.38, 87.04 6.76 M1.1 105.63 C32.79 69.79, 65.87 31.68, 87.04 6.76 M6.08 105.99 C25.85 85.72, 41.74 62.2, 92.03 7.12 M6.08 105.99 C32.87 74.91, 59.81 43.43, 92.03 7.12 M10.41 107.1 C40.8 72.99, 74.95 36.62, 96.36 8.24 M10.41 107.1 C31.98 82.94, 52.2 58.82, 96.36 8.24 M14.74 108.22 C42.77 74.2, 73.54 43.27, 100.69 9.35 M14.74 108.22 C45.93 73.03, 75.67 36.49, 100.69 9.35 M19.73 108.58 C42.06 83.37, 60.81 59.56, 105.67 9.71 M19.73 108.58 C51.11 71.98, 83.1 37.71, 105.67 9.71 M24.06 109.69 C50.98 78, 74.92 51.67, 110.01 10.83 M24.06 109.69 C52.77 76.35, 79.98 43.6, 110.01 10.83 M28.39 110.81 C51.26 85.02, 73.35 61.59, 114.99 11.19 M28.39 110.81 C49.44 88.37, 69.5 64.48, 114.99 11.19 M32.72 111.92 C58.55 80.42, 85.41 48.14, 119.32 12.3 M32.72 111.92 C63.73 77.49, 92.53 44.78, 119.32 12.3 M38.37 111.53 C55.83 88.6, 72.71 70.68, 123.65 13.42 M38.37 111.53 C70.38 76.09, 101.99 39.7, 123.65 13.42 M45.32 109.62 C64.29 89.41, 82.37 68.36, 128.64 13.78 M45.32 109.62 C71.02 81.09, 96.85 50.68, 128.64 13.78 M51.62 108.47 C74.6 80.23, 95.65 52.51, 132.97 14.89 M51.62 108.47 C80.82 75.9, 108.18 45.12, 132.97 14.89 M57.92 107.33 C80.61 78.46, 104.1 51.51, 137.3 16.01 M57.92 107.33 C78.56 81.34, 100.36 57.3, 137.3 16.01 M64.22 106.18 C87.76 76.78, 114.29 49.86, 142.29 16.37 M64.22 106.18 C85.88 80.9, 107.81 55.16, 142.29 16.37 M70.52 105.03 C93.88 77.62, 114.98 52.93, 146.62 17.48 M70.52 105.03 C94.93 77.77, 118.23 50.77, 146.62 17.48 M76.82 103.88 C97.76 78.2, 118.49 55.24, 151.61 17.84 M76.82 103.88 C94.71 83.44, 112.67 63.37, 151.61 17.84 M83.12 102.73 C98.96 83.59, 111.96 66.67, 155.94 18.96 M83.12 102.73 C101.96 80.5, 119.86 60.07, 155.94 18.96 M89.42 101.58 C104.84 83.1, 118.68 64.47, 160.27 20.07 M89.42 101.58 C103.34 86.28, 117.99 69.42, 160.27 20.07 M95.72 100.43 C111.59 77.94, 129.69 60.87, 165.26 20.43 M95.72 100.43 C116.67 78.35, 136.82 55.05, 165.26 20.43 M102.01 99.28 C119.76 76.8, 141 57.39, 169.59 21.54 M102.01 99.28 C120.65 79.45, 137.93 57.36, 169.59 21.54 M108.31 98.13 C130.22 72.85, 153.47 45.68, 173.92 22.66 M108.31 98.13 C133.15 68.27, 158.85 39.74, 173.92 22.66 M114.61 96.98 C131.5 74.75, 151.32 54.19, 178.91 23.02 M114.61 96.98 C133.24 77.83, 151 57.85, 178.91 23.02 M120.91 95.83 C144.43 69.65, 167.28 44.85, 179.96 27.91 M120.91 95.83 C140.85 71.37, 160.92 48.15, 179.96 27.91 M127.21 94.68 C138.86 79.75, 150.09 68.31, 179.7 34.31 M127.21 94.68 C145.67 72.97, 166 51.46, 179.7 34.31 M133.51 93.53 C150.4 71.86, 167.13 53.89, 179.43 40.7 M133.51 93.53 C144.42 80.27, 156.37 67.11, 179.43 40.7 M139.81 92.38 C153.63 79.48, 162.51 63.73, 179.17 47.1 M139.81 92.38 C150.17 81.16, 159.61 72.08, 179.17 47.1 M146.11 91.23 C156.25 76.93, 168.34 66.25, 178.26 54.25 M146.11 91.23 C154.38 81.35, 163.65 71.96, 178.26 54.25 M152.41 90.09 C160.89 83.54, 168.96 72.21, 177.99 60.65 M152.41 90.09 C160.23 81.56, 167.54 71.98, 177.99 60.65 M158.71 88.94 C165.1 78.65, 172.25 72.64, 177.73 67.05 M158.71 88.94 C163.29 83.59, 167.26 78.77, 177.73 67.05 M165.01 87.79 C168.3 85.48, 171.11 80.51, 177.47 73.45 M165.01 87.79 C167.8 83.65, 172.23 79.71, 177.47 73.45 M171.3 86.64 C172.7 84.73, 175.61 80.83, 177.21 79.85 M171.3 86.64 C172.65 85.53, 173.65 83.71, 177.21 79.85" stroke="#be4bdb" stroke-width="0.5" fill="none"></path><path d="M53.4 0 C20.92 4.08, -9.54 9.22, -94.66 20.68 M53.4 0 C-2.11 7.89, -57.97 15.58, -94.66 20.68 M-94.66 20.68 C-96.12 40.06, -96.54 60.32, -96.4 85.55 M-94.66 20.68 C-94.43 39.31, -96.48 58.15, -96.4 85.55 M-96.4 85.55 C-59.23 94.28, -20.28 101.44, 35.34 111.62 M-96.4 85.55 C-55.83 94.26, -14.46 102.15, 35.34 111.62 M35.34 111.62 C80.52 104.64, 125.26 97.52, 176.61 85.24 M35.34 111.62 C70.31 106.17, 107.01 98.63, 176.61 85.24 M176.61 85.24 C177.47 68.39, 177.09 54.18, 179.65 22.92 M176.61 85.24 C176.42 70.18, 177.07 55.52, 179.65 22.92 M179.65 22.92 C145.42 14.95, 109.63 8.94, 53.4 0 M179.65 22.92 C139.53 15.31, 97.86 7.77, 53.4 0 M53.4 0 C53.4 0, 53.4 0, 53.4 0 M53.4 0 C53.4 0, 53.4 0, 53.4 0" stroke="#881fa3" stroke-width="1" fill="none"></path></g></g><mask></mask><g transform="translate(1017.3947830971333 1033.9893165069516) rotate(0 120.1500015258789 22.5)"><text x="0" y="31.536" font-family="Virgil, Segoe UI Emoji" font-size="36px" fill="#1e1e1e" text-anchor="start" style="white-space: pre;" direction="ltr" dominant-baseline="alphabetic">API Gateway</text></g><g stroke-linecap="round"><g transform="translate(1375.9604243073738 707.2961767376222) rotate(0 -94.95349387604494 160.6905280979222)"><path d="M-0.55 0.81 C-32 54.38, -157.53 268.08, -188.97 321.58 M1.36 0.19 C-30.13 53.36, -157.6 266.31, -189.42 319.57" stroke="#e03131" stroke-width="2" fill="none"></path></g><g transform="translate(1375.9604243073738 707.2961767376222) rotate(0 -94.95349387604494 160.6905280979222)"><path d="M-184.7 295.02 C-184.61 303.27, -186.91 309.63, -189.42 319.57 M-184.7 295.02 C-186.91 303.45, -187.98 311.07, -189.42 319.57" stroke="#e03131" stroke-width="2" fill="none"></path></g><g transform="translate(1375.9604243073738 707.2961767376222) rotate(0 -94.95349387604494 160.6905280979222)"><path d="M-170.03 303.79 C-173.95 309.58, -180.26 313.54, -189.42 319.57 M-170.03 303.79 C-177.18 309.16, -183.23 313.8, -189.42 319.57" stroke="#e03131" stroke-width="2" fill="none"></path></g></g><mask></mask><g stroke-linecap="round"><g transform="translate(1058.563430791643 850.7224332217181) rotate(0 29.216459654167693 80.34526404896116)"><path d="M-0.83 -0.31 C9.08 26.63, 49.29 134.67, 59 161.34 M0.94 -1.52 C10.77 25.1, 48.54 132.56, 58.35 159.56" stroke="#1971c2" stroke-width="2" fill="none"></path></g><g transform="translate(1058.563430791643 850.7224332217181) rotate(0 29.216459654167693 80.34526404896116)"><path d="M42.4 140.31 C46.04 146.44, 51.85 148.91, 58.35 159.56 M42.4 140.31 C46.38 144.2, 48.63 148.56, 58.35 159.56" stroke="#1971c2" stroke-width="2" fill="none"></path></g><g transform="translate(1058.563430791643 850.7224332217181) rotate(0 29.216459654167693 80.34526404896116)"><path d="M58.51 134.56 C57.89 142.09, 59.45 146.08, 58.35 159.56 M58.51 134.56 C59 139.79, 57.75 145.4, 58.35 159.56" stroke="#1971c2" stroke-width="2" fill="none"></path></g></g><mask></mask><g stroke-opacity="0.9" fill-opacity="0.9" stroke-linecap="round" transform="translate(1147.2224213886873 1119.0161010325587) rotate(89.06080905426445 34.84695248648279 100.89614054636911)"><path d="M1.86 -1.25 L70.8 -1.8 L70.89 200.77 L-1.28 200.52" stroke="none" stroke-width="0" fill="#eeeeee"></path><path d="M0 0 C25.53 -1.95, 48.39 -1.84, 69.69 0 M0 0 C26.38 1.12, 51.75 -0.4, 69.69 0 M69.69 0 C69.28 41.06, 66.89 81.92, 69.69 201.79 M69.69 0 C69.42 75.25, 69.02 150.88, 69.69 201.79 M69.69 201.79 C53.1 200.17, 39.3 203.39, 0 201.79 M69.69 201.79 C55.49 202.45, 39.8 202.53, 0 201.79 M0 201.79 C3.07 158.19, 1.06 115.69, 0 0 M0 201.79 C2.65 144.73, 0.98 89.61, 0 0" stroke="#000000" stroke-width="1" fill="none"></path></g><g stroke-linecap="round" transform="translate(1195.1860820509055 1228.1170716357256) rotate(89.06080905426445 9.231590669814409 8.947541726127838)"><path d="M7.39 -0.16 C9.35 -0.56, 12.68 0.63, 14.41 1.64 C16.14 2.65, 17.19 4.2, 17.76 5.89 C18.32 7.58, 18.49 10.06, 17.79 11.8 C17.1 13.55, 15.28 15.38, 13.58 16.35 C11.89 17.33, 9.52 17.97, 7.61 17.65 C5.69 17.32, 3.29 15.81, 2.08 14.42 C0.86 13.02, 0.37 11.09, 0.33 9.29 C0.29 7.48, 0.59 5.12, 1.85 3.58 C3.11 2.04, 6.84 0.6, 7.87 0.05 C8.9 -0.51, 7.93 0.14, 8.01 0.26 M9.72 0.35 C11.61 0.49, 14.63 1.5, 15.97 2.95 C17.31 4.39, 17.61 7.07, 17.75 9.01 C17.89 10.95, 17.8 13.09, 16.81 14.58 C15.83 16.06, 13.84 17.44, 11.84 17.93 C9.85 18.42, 6.57 18.33, 4.83 17.51 C3.09 16.68, 2.24 14.87, 1.4 12.98 C0.55 11.08, -0.81 8, -0.26 6.14 C0.29 4.28, 2.91 2.83, 4.7 1.83 C6.48 0.83, 9.43 0.35, 10.43 0.15 C11.43 -0.05, 10.7 0.46, 10.72 0.62" stroke="none" stroke-width="0" fill="#868e96"></path><path d="M7.17 0.52 C8.99 0.09, 12.35 0.54, 14.06 1.33 C15.77 2.12, 16.84 3.55, 17.44 5.25 C18.04 6.96, 18.2 9.64, 17.66 11.56 C17.11 13.47, 15.89 15.68, 14.17 16.75 C12.44 17.83, 9.23 18.35, 7.3 18 C5.38 17.64, 3.79 16.05, 2.62 14.61 C1.45 13.17, 0.38 11.24, 0.3 9.36 C0.22 7.48, 0.84 4.96, 2.16 3.35 C3.48 1.74, 7.2 0.22, 8.2 -0.31 C9.2 -0.85, 8.27 0, 8.16 0.15 M9.03 0.23 C10.83 0.21, 13.65 0.99, 15.07 2.19 C16.49 3.38, 17.28 5.71, 17.56 7.42 C17.84 9.12, 17.65 10.7, 16.74 12.43 C15.83 14.17, 13.91 17.04, 12.11 17.84 C10.31 18.65, 7.82 17.97, 5.95 17.26 C4.09 16.55, 2.02 15.11, 0.91 13.6 C-0.19 12.08, -1.13 10.14, -0.66 8.17 C-0.2 6.21, 2.24 3.07, 3.71 1.8 C5.18 0.53, 7.18 0.88, 8.15 0.54 C9.12 0.19, 9.35 -0.23, 9.54 -0.28" stroke="#000000" stroke-width="1" fill="none"></path></g><g stroke-linecap="round" transform="translate(1197.4864989715759 1192.0107553181397) rotate(89.06080905426445 9.231590669814409 8.947541726127838)"><path d="M11.44 0.54 C13.34 0.8, 15.05 1.83, 16.21 3.2 C17.37 4.57, 18.42 6.91, 18.39 8.78 C18.37 10.65, 17.32 12.93, 16.05 14.42 C14.78 15.9, 12.71 17.36, 10.78 17.7 C8.85 18.03, 6.13 17.33, 4.47 16.43 C2.82 15.54, 1.54 14.03, 0.83 12.32 C0.12 10.62, -0.41 8.1, 0.22 6.22 C0.85 4.35, 2.81 2.09, 4.58 1.09 C6.35 0.1, 9.69 0.39, 10.85 0.24 C12.01 0.1, 11.49 0.1, 11.56 0.22 M9.1 0.05 C10.98 -0.04, 12.83 1.27, 14.41 2.51 C15.98 3.76, 17.98 5.66, 18.56 7.51 C19.13 9.36, 18.91 11.86, 17.86 13.6 C16.82 15.34, 14.14 17.22, 12.31 17.95 C10.47 18.67, 8.79 18.74, 6.84 17.97 C4.89 17.21, 1.64 15.04, 0.6 13.36 C-0.45 11.68, 0.12 9.75, 0.56 7.89 C1 6.03, 1.76 3.47, 3.25 2.22 C4.73 0.96, 8.45 0.68, 9.47 0.37 C10.49 0.06, 9.48 0.18, 9.37 0.35" stroke="none" stroke-width="0" fill="#868e96"></path><path d="M9.59 0.2 C11.45 -0.05, 13.36 0.46, 14.77 1.61 C16.17 2.76, 17.59 5.1, 18.03 7.1 C18.47 9.09, 18.43 11.82, 17.41 13.57 C16.38 15.31, 13.73 16.98, 11.89 17.57 C10.06 18.17, 8.15 17.79, 6.42 17.14 C4.69 16.49, 2.56 15.29, 1.53 13.67 C0.5 12.05, -0.13 9.42, 0.24 7.42 C0.61 5.41, 2.16 2.91, 3.72 1.66 C5.28 0.41, 8.65 0.22, 9.62 -0.09 C10.59 -0.39, 9.56 -0.4, 9.53 -0.17 M7.34 0.57 C8.99 0.07, 11.09 0.66, 12.71 1.36 C14.32 2.06, 16.26 2.97, 17.04 4.77 C17.83 6.57, 17.96 10.25, 17.42 12.16 C16.88 14.07, 15.43 15.3, 13.79 16.22 C12.16 17.14, 9.62 17.8, 7.61 17.68 C5.61 17.55, 2.91 16.94, 1.76 15.47 C0.61 14.01, 0.82 10.79, 0.72 8.9 C0.62 7.01, -0.03 5.64, 1.15 4.12 C2.34 2.59, 6.75 0.5, 7.82 -0.23 C8.89 -0.96, 7.59 -0.42, 7.58 -0.26" stroke="#000000" stroke-width="1" fill="none"></path></g><g stroke-linecap="round" transform="translate(1144.601298765839 1229.4381519488422) rotate(89.06080905426445 9.231590669814409 8.947541726127838)"><path d="M7.78 -0.04 C9.54 -0.51, 12.4 0.07, 14.08 1.05 C15.76 2.02, 17.24 3.94, 17.87 5.8 C18.51 7.67, 18.61 10.42, 17.89 12.24 C17.17 14.05, 15.25 15.69, 13.54 16.68 C11.83 17.67, 9.61 18.46, 7.61 18.16 C5.61 17.87, 2.84 16.52, 1.54 14.92 C0.25 13.32, -0.26 10.57, -0.17 8.58 C-0.09 6.59, 0.61 4.43, 2.04 2.98 C3.47 1.52, 7.3 0.33, 8.42 -0.15 C9.53 -0.63, 8.74 0, 8.72 0.1 M9.38 0.51 C11.31 0.59, 14.43 1.52, 16.04 2.84 C17.65 4.17, 18.94 6.48, 19.03 8.46 C19.13 10.44, 17.74 13.11, 16.61 14.73 C15.49 16.35, 14.27 17.83, 12.27 18.19 C10.27 18.55, 6.44 17.76, 4.61 16.91 C2.78 16.06, 2 14.82, 1.28 13.11 C0.57 11.4, -0.17 8.52, 0.33 6.67 C0.84 4.81, 2.63 3.04, 4.29 1.97 C5.95 0.89, 9.39 0.42, 10.3 0.21 C11.21 0.01, 9.7 0.66, 9.74 0.73" stroke="none" stroke-width="0" fill="#868e96"></path><path d="M10.45 -0.35 C12.21 -0.23, 14.65 1.33, 16.02 2.9 C17.39 4.48, 18.69 7.1, 18.65 9.11 C18.62 11.11, 17.05 13.52, 15.81 14.93 C14.56 16.34, 12.99 17.22, 11.17 17.56 C9.35 17.89, 6.64 17.87, 4.89 16.95 C3.14 16.02, 1.3 13.94, 0.64 12.02 C-0.01 10.1, 0.31 7.26, 0.98 5.44 C1.65 3.62, 3.05 2.03, 4.67 1.09 C6.29 0.15, 9.62 -0.15, 10.71 -0.19 C11.8 -0.23, 11.24 0.61, 11.2 0.84 M9.24 0.42 C10.98 0.28, 13.59 0.52, 15.01 1.89 C16.43 3.27, 17.54 6.71, 17.77 8.69 C17.99 10.67, 17.46 12.32, 16.36 13.78 C15.27 15.23, 13.14 16.79, 11.2 17.41 C9.25 18.03, 6.28 18.36, 4.68 17.5 C3.09 16.65, 2.47 13.98, 1.62 12.28 C0.77 10.57, -0.89 9.11, -0.4 7.26 C0.09 5.42, 2.76 2.53, 4.55 1.21 C6.34 -0.11, 9.37 -0.42, 10.34 -0.65 C11.31 -0.88, 10.52 -0.36, 10.36 -0.18" stroke="#000000" stroke-width="1" fill="none"></path></g><g stroke-linecap="round" transform="translate(1246.7609787461986 1227.081594033956) rotate(89.06080905426445 9.231590669814409 8.947541726127838)"><path d="M10.9 -0.17 C12.77 0.01, 14.96 1.36, 16.24 2.89 C17.52 4.41, 18.57 7.03, 18.57 8.98 C18.57 10.94, 17.48 13.07, 16.22 14.61 C14.97 16.16, 13.05 17.83, 11.03 18.25 C9.01 18.67, 5.89 18.18, 4.11 17.12 C2.33 16.06, 0.98 13.75, 0.33 11.86 C-0.31 9.98, -0.51 7.63, 0.25 5.81 C1.02 3.98, 3.04 1.87, 4.93 0.93 C6.83 -0.02, 10.5 0.28, 11.63 0.13 C12.76 -0.01, 11.75 -0.11, 11.71 0.05 M9.65 0.2 C11.74 0.08, 14.47 1.12, 15.89 2.45 C17.31 3.78, 17.87 6.22, 18.19 8.17 C18.52 10.12, 18.94 12.63, 17.83 14.15 C16.73 15.67, 13.47 16.68, 11.55 17.28 C9.64 17.87, 8.09 18.38, 6.36 17.72 C4.62 17.07, 2.14 15.04, 1.16 13.36 C0.19 11.67, 0.07 9.47, 0.49 7.61 C0.9 5.74, 2.21 3.35, 3.64 2.17 C5.08 0.98, 8.03 0.9, 9.07 0.52 C10.11 0.13, 9.78 -0.13, 9.9 -0.13" stroke="none" stroke-width="0" fill="#868e96"></path><path d="M9.86 -0.27 C11.84 -0.09, 14.68 1.38, 16.03 2.84 C17.38 4.3, 17.78 6.64, 17.96 8.5 C18.13 10.35, 18.11 12.4, 17.08 13.97 C16.06 15.53, 13.76 17.37, 11.8 17.88 C9.84 18.4, 7.08 17.99, 5.32 17.05 C3.55 16.1, 2.05 13.97, 1.22 12.2 C0.4 10.43, -0.03 8.26, 0.37 6.43 C0.78 4.59, 1.92 2.16, 3.65 1.18 C5.37 0.2, 9.5 0.67, 10.71 0.56 C11.92 0.46, 10.91 0.46, 10.92 0.56 M9.58 -0.6 C11.47 -0.47, 13.87 1.94, 15.26 3.4 C16.66 4.86, 17.81 6.38, 17.95 8.17 C18.1 9.95, 17.35 12.45, 16.14 14.1 C14.92 15.75, 12.38 17.66, 10.66 18.04 C8.95 18.43, 7.6 17.25, 5.84 16.42 C4.08 15.59, 0.88 14.81, 0.09 13.06 C-0.71 11.32, 0.33 8, 1.07 5.96 C1.81 3.92, 2.93 1.87, 4.53 0.82 C6.14 -0.22, 9.83 -0.15, 10.71 -0.33 C11.58 -0.51, 9.75 -0.37, 9.76 -0.25" stroke="#000000" stroke-width="1" fill="none"></path></g><g stroke-linecap="round"><g transform="translate(1165.6033666113678 1199.804000995668) rotate(89.06080905426445 13.341544512779137 18.7909883855952)"><path d="M0 0 C9.2 12.9, 19.33 27.21, 26.68 37.58 M0 0 C9.27 13.18, 17.87 25.81, 26.68 37.58" stroke="#000000" stroke-width="1" fill="none"></path></g><g transform="translate(1165.6033666113678 1199.804000995668) rotate(89.06080905426445 13.341544512779137 18.7909883855952)"><path d="M7.55 24.74 C13.86 28.48, 21.19 33.61, 26.68 37.58 M7.55 24.74 C14.24 29.53, 20.28 33.81, 26.68 37.58" stroke="#000000" stroke-width="1" fill="none"></path></g><g transform="translate(1165.6033666113678 1199.804000995668) rotate(89.06080905426445 13.341544512779137 18.7909883855952)"><path d="M20.28 15.44 C21.9 22.66, 24.51 31.24, 26.68 37.58 M20.28 15.44 C22.68 23.31, 24.43 30.73, 26.68 37.58" stroke="#000000" stroke-width="1" fill="none"></path></g></g><mask></mask><g stroke-linecap="round"><g transform="translate(1197.7738649075109 1218.4393202219994) rotate(89.06080905426445 8.305651919865568 0.6603664148592543)"><path d="M0 0 C5.14 0.01, 11.61 1.2, 16.61 1.32 M0 0 C3.22 0.46, 7.01 0.56, 16.61 1.32" stroke="#000000" stroke-width="1" fill="none"></path></g><g transform="translate(1197.7738649075109 1218.4393202219994) rotate(89.06080905426445 8.305651919865568 0.6603664148592543)"><path d="M8.59 3.58 C11.08 2.59, 14.21 2.19, 16.61 1.32 M8.59 3.58 C10.14 3.22, 11.97 2.67, 16.61 1.32" stroke="#000000" stroke-width="1" fill="none"></path></g><g transform="translate(1197.7738649075109 1218.4393202219994) rotate(89.06080905426445 8.305651919865568 0.6603664148592543)"><path d="M9.01 -2.1 C11.33 -1.16, 14.33 0.38, 16.61 1.32 M9.01 -2.1 C10.49 -1.3, 12.23 -0.69, 16.61 1.32" stroke="#000000" stroke-width="1" fill="none"></path></g></g><mask></mask><g stroke-linecap="round"><g transform="translate(1218.7541093417249 1234.8796246423299) rotate(89.06080905426445 12.700208522359162 -16.264867835951634)"><path d="M0 0 C5.58 -6.2, 9.36 -12.58, 25.4 -32.53 M0 0 C9.78 -12.08, 19 -23.87, 25.4 -32.53" stroke="#000000" stroke-width="1" fill="none"></path></g><g transform="translate(1218.7541093417249 1234.8796246423299) rotate(89.06080905426445 12.700208522359162 -16.264867835951634)"><path d="M19.36 -12.8 C21.01 -16.48, 20.89 -20.29, 25.4 -32.53 M19.36 -12.8 C21.91 -20.06, 23.93 -27.09, 25.4 -32.53" stroke="#000000" stroke-width="1" fill="none"></path></g><g transform="translate(1218.7541093417249 1234.8796246423299) rotate(89.06080905426445 12.700208522359162 -16.264867835951634)"><path d="M8.09 -21.3 C11.98 -23.24, 14.13 -25.34, 25.4 -32.53 M8.09 -21.3 C14.82 -25.43, 21.03 -29.3, 25.4 -32.53" stroke="#000000" stroke-width="1" fill="none"></path></g></g><mask></mask><g transform="translate(1075.0832536720463 1201.1497189593074) rotate(89.06080905426445 31.5 20)"><text x="31.5" y="14.483016913171605" font-family="Virgil, Segoe UI Emoji" font-size="14.751291676011752px" fill="#000000" text-anchor="middle" style="white-space: pre;" direction="ltr" dominant-baseline="alphabetic">Load</text><text x="31.5" y="34.4830169131716" font-family="Virgil, Segoe UI Emoji" font-size="14.751291676011752px" fill="#000000" text-anchor="middle" style="white-space: pre;" direction="ltr" dominant-baseline="alphabetic">Balancer</text></g><g stroke-linecap="round"><g transform="translate(1118.3243709933497 1095.0782776020296) rotate(0 3.3200522334281004 132.13807889044028)"><path d="M-0.34 0.29 C11.76 19.77, 84.29 73.17, 73.25 117.18 C62.21 161.18, -43.37 239.87, -66.57 264.34 M1.68 -0.6 C13.59 18.97, 83.93 73.8, 72.41 118.18 C60.9 162.56, -44.44 241.22, -67.42 265.7" stroke="#e03131" stroke-width="2" fill="none"></path></g><g transform="translate(1118.3243709933497 1095.0782776020296) rotate(0 3.3200522334281004 132.13807889044028)"><path d="M-55.65 243.64 C-59.25 251.72, -65.57 258.86, -67.42 265.7 M-55.65 243.64 C-58.74 249.37, -62.47 256.21, -67.42 265.7" stroke="#e03131" stroke-width="2" fill="none"></path></g><g transform="translate(1118.3243709933497 1095.0782776020296) rotate(0 3.3200522334281004 132.13807889044028)"><path d="M-44.23 256.36 C-51.87 259.93, -62.22 262.59, -67.42 265.7 M-44.23 256.36 C-50.86 258.18, -58.08 261.13, -67.42 265.7" stroke="#e03131" stroke-width="2" fill="none"></path></g></g><mask></mask><g transform="translate(1154.1809351143736 1085.782131348431) rotate(0 0.00004999999998744897 0.00004999999998744897)" stroke="none"><path fill="#e03131" d="M 3.14,-3.14 Q 3.14,-3.14 3.55,-2.55 3.97,-1.97 4.18,-1.28 4.40,-0.59 4.38,0.11 4.36,0.83 4.11,1.51 3.86,2.18 3.41,2.74 2.96,3.30 2.36,3.69 1.75,4.08 1.05,4.25 0.36,4.42 -0.35,4.36 -1.07,4.31 -1.73,4.02 -2.39,3.74 -2.92,3.26 -3.46,2.78 -3.81,2.15 -4.16,1.53 -4.30,0.82 -4.43,0.11 -4.34,-0.59 -4.24,-1.30 -3.92,-1.94 -3.60,-2.59 -3.09,-3.09 -2.59,-3.60 -1.94,-3.92 -1.30,-4.24 -0.59,-4.34 0.12,-4.43 0.82,-4.30 1.53,-4.16 2.15,-3.81 2.78,-3.46 3.26,-2.92 3.74,-2.39 4.02,-1.73 4.31,-1.07 4.36,-0.35 4.42,0.36 4.25,1.05 4.07,1.75 3.69,2.36 3.30,2.96 2.74,3.41 2.18,3.86 1.51,4.11 0.83,4.36 0.11,4.38 -0.60,4.40 -1.28,4.18 -1.97,3.97 -2.55,3.55 -3.14,3.13 -3.14,3.14 -3.14,3.14 -3.47,2.71 -3.80,2.29 -4.02,1.80 -4.24,1.32 -4.33,0.79 -4.43,0.26 -4.40,-0.26 -4.36,-0.80 -4.20,-1.31 -4.04,-1.82 -3.77,-2.28 -3.49,-2.73 -3.11,-3.11 -2.73,-3.49 -2.28,-3.77 -1.82,-4.05 -1.31,-4.20 -0.80,-4.36 -0.26,-4.40 0.26,-4.43 0.79,-4.33 1.32,-4.24 1.80,-4.02 2.29,-3.80 2.71,-3.47 3.14,-3.14 3.14,-3.14 L 3.14,-3.14 Z"></path></g><g transform="translate(1241.8303140768767 1222.5682833656706) rotate(0 0.00004999999998744897 0.00004999999998744897)" stroke="none"><path fill="#e03131" d="M 3.14,-3.14 Q 3.14,-3.14 3.55,-2.55 3.97,-1.97 4.18,-1.28 4.40,-0.59 4.38,0.11 4.36,0.83 4.11,1.51 3.86,2.18 3.41,2.74 2.96,3.30 2.36,3.69 1.75,4.08 1.05,4.25 0.36,4.42 -0.35,4.36 -1.07,4.31 -1.73,4.02 -2.39,3.74 -2.92,3.26 -3.46,2.78 -3.81,2.15 -4.16,1.53 -4.30,0.82 -4.43,0.11 -4.34,-0.59 -4.24,-1.30 -3.92,-1.94 -3.60,-2.59 -3.09,-3.09 -2.59,-3.60 -1.94,-3.92 -1.30,-4.24 -0.59,-4.34 0.12,-4.43 0.82,-4.30 1.53,-4.16 2.15,-3.81 2.78,-3.46 3.26,-2.92 3.74,-2.39 4.02,-1.73 4.31,-1.07 4.36,-0.35 4.42,0.36 4.25,1.05 4.07,1.75 3.69,2.36 3.30,2.96 2.74,3.41 2.18,3.86 1.51,4.11 0.83,4.36 0.11,4.38 -0.60,4.40 -1.28,4.18 -1.97,3.97 -2.55,3.55 -3.14,3.13 -3.14,3.14 -3.14,3.14 -3.47,2.71 -3.80,2.29 -4.02,1.80 -4.24,1.32 -4.33,0.79 -4.43,0.26 -4.40,-0.26 -4.36,-0.80 -4.20,-1.31 -4.04,-1.82 -3.77,-2.28 -3.49,-2.73 -3.11,-3.11 -2.73,-3.49 -2.28,-3.77 -1.82,-4.05 -1.31,-4.20 -0.80,-4.36 -0.26,-4.40 0.26,-4.43 0.79,-4.33 1.32,-4.24 1.80,-4.02 2.29,-3.80 2.71,-3.47 3.14,-3.14 3.14,-3.14 L 3.14,-3.14 Z"></path></g><g stroke-linecap="round"><g transform="translate(1174.1012485149424 1088.4381731351732) rotate(0 101.18316050849592 138.3323060026126)"><path d="M-0.57 -0.54 C6.84 19.39, 11.3 74.23, 45.32 120.46 C79.34 166.69, 177.49 250.81, 203.54 276.82 M1.33 1.79 C9.02 21.31, 13.75 72.76, 47.42 118.83 C81.1 164.9, 177.71 251.77, 203.38 278.23" stroke="#e03131" stroke-width="2" fill="none"></path></g><g transform="translate(1174.1012485149424 1088.4381731351732) rotate(0 101.18316050849592 138.3323060026126)"><path d="M180.56 268.04 C188.13 269.96, 198.99 277.59, 203.38 278.23 M180.56 268.04 C188.12 270.68, 194.74 275.1, 203.38 278.23" stroke="#e03131" stroke-width="2" fill="none"></path></g><g transform="translate(1174.1012485149424 1088.4381731351732) rotate(0 101.18316050849592 138.3323060026126)"><path d="M192.45 255.75 C195.74 262.13, 202.23 274.28, 203.38 278.23 M192.45 255.75 C196.21 262.23, 199.1 270.5, 203.38 278.23" stroke="#e03131" stroke-width="2" fill="none"></path></g></g><mask></mask><g stroke-linecap="round" transform="translate(1871.0815123510672 1165.3025960666291) rotate(0 489.64248781215707 472.05320302797327)"><path d="M-0.81 -1.51 L981.01 1.24 L979.4 942.46 L-1.24 942.45" stroke="none" stroke-width="0" fill="#eeeeee"></path><path d="M0 0 C247.03 -2.67, 492.82 -2.57, 979.28 0 M0 0 C334.99 -1.83, 669.88 -2.62, 979.28 0 M979.28 0 C980.07 332.97, 979.88 665.41, 979.28 944.11 M979.28 0 C976.25 307.17, 976.36 615.31, 979.28 944.11 M979.28 944.11 C778.76 944.76, 576.19 945.3, 0 944.11 M979.28 944.11 C735.07 941.93, 490.35 942.14, 0 944.11 M0 944.11 C2.43 643.66, 3.2 343.35, 0 0 M0 944.11 C-3.24 640.06, -2.73 335.6, 0 0" stroke="#000000" stroke-width="1" fill="none"></path></g><g transform="translate(2054.6476209010752 1213.7074982394247) rotate(0 208.02236729052285 29.717481041503277)"><text x="0" y="41.65202142777098" font-family="Virgil, Segoe UI Emoji" font-size="47.54796966640523px" fill="#1e1e1e" text-anchor="start" style="white-space: pre;" direction="ltr" dominant-baseline="alphabetic">Маркетплей Газон</text></g><g stroke-linecap="round" transform="translate(1939.4120933575311 1308.6755294348313) rotate(0 135.23994564735602 28.395676630308174)"><path d="M0.12 -1.65 L269.24 -1.65 L269.45 58.33 L1.08 55.74" stroke="none" stroke-width="0" fill="#b2f2bb"></path><path d="M0 0 C99.03 -0.7, 197.64 -1.46, 270.48 0 M0 0 C108.43 2.18, 215.91 2.43, 270.48 0 M270.48 0 C271.11 19.37, 269.5 40.95, 270.48 56.79 M270.48 0 C269.45 12.56, 270.55 25.78, 270.48 56.79 M270.48 56.79 C186.6 56.99, 103.5 58.72, 0 56.79 M270.48 56.79 C201.52 56.33, 132.8 56.35, 0 56.79 M0 56.79 C0.34 40.26, -1.93 19.07, 0 0 M0 56.79 C-0.69 35.46, 0.58 16.27, 0 0" stroke="#000000" stroke-width="1" fill="none"></path></g><g transform="translate(1986.086519158406 1311.8870601907013) rotate(0 88.56551984648138 20.77549319760311)"><text x="88.56551984648137" y="29.78433739040073" font-family="Virgil, Segoe UI Emoji" font-size="31.461628355094863px" fill="#000000" text-anchor="middle" style="white-space: pre;" direction="ltr" dominant-baseline="alphabetic">UserService</text></g><g stroke-linecap="round" transform="translate(1907.9111560749395 1438.1575665385292) rotate(0 135.23994564735602 28.39567663030823)"><path d="M-1.03 1.53 L271.56 -1.05 L270.94 58.06 L1.62 58.58" stroke="none" stroke-width="0" fill="#b2f2bb"></path><path d="M0 0 C98.86 -0.28, 193.05 0.58, 270.48 0 M0 0 C84.79 -0.75, 169.05 -0.71, 270.48 0 M270.48 0 C268.53 12.44, 271.79 23.56, 270.48 56.79 M270.48 0 C270.64 17.43, 271.31 35.47, 270.48 56.79 M270.48 56.79 C212.41 55.97, 155.86 57.56, 0 56.79 M270.48 56.79 C211.33 55.3, 152.31 55.33, 0 56.79 M0 56.79 C1.76 36.34, 0.93 13.1, 0 0 M0 56.79 C-0.43 43.22, -1.11 30.47, 0 0" stroke="#000000" stroke-width="1" fill="none"></path></g><g transform="translate(1929.351098670538 1441.369097294399) rotate(0 113.80000305175781 20.775493197603055)"><text x="113.80000305175781" y="29.78433739040073" font-family="Virgil, Segoe UI Emoji" font-size="31.461628355094863px" fill="#000000" text-anchor="middle" style="white-space: pre;" direction="ltr" dominant-baseline="alphabetic">ProductService</text></g><g stroke-linecap="round" transform="translate(2396.6228448355623 1293.403289161062) rotate(0 135.23994564735602 28.395676630308174)"><path d="M-1.74 1.33 L269.79 -0.84 L271.5 58.79 L1.02 55.67" stroke="none" stroke-width="0" fill="#b2f2bb"></path><path d="M0 0 C76.59 -0.36, 152.94 -2.62, 270.48 0 M0 0 C66.26 2.37, 132 1.86, 270.48 0 M270.48 0 C269.93 19.39, 270.04 34.04, 270.48 56.79 M270.48 0 C269.78 14.23, 270.79 27.49, 270.48 56.79 M270.48 56.79 C171.69 58.02, 72.67 58.39, 0 56.79 M270.48 56.79 C214.36 58.27, 157.15 57.52, 0 56.79 M0 56.79 C-2 33.62, -2.01 11.9, 0 0 M0 56.79 C-0.08 36.03, 0.51 14.9, 0 0" stroke="#000000" stroke-width="1" fill="none"></path></g><g transform="translate(2415.546124833505 1296.6148199169318) rotate(0 116.31666564941406 20.77549319760311)"><text x="116.31666564941406" y="29.78433739040073" font-family="Virgil, Segoe UI Emoji" font-size="31.461628355094863px" fill="#000000" text-anchor="middle" style="white-space: pre;" direction="ltr" dominant-baseline="alphabetic">PaymentService</text></g><g stroke-linecap="round" transform="translate(2412.5590955560174 1418.2372531379604) rotate(0 135.23994564735602 28.39567663030823)"><path d="M1.02 2 L271.5 -1.13 L268.84 54.91 L-0.4 55.06" stroke="none" stroke-width="0" fill="#b2f2bb"></path><path d="M0 0 C98.78 0.97, 198 1.38, 270.48 0 M0 0 C103.2 0.43, 206.23 -0.79, 270.48 0 M270.48 0 C269.17 21.71, 269.3 40.85, 270.48 56.79 M270.48 0 C271.25 16.71, 270.77 35.16, 270.48 56.79 M270.48 56.79 C173.33 57.2, 80 59.21, 0 56.79 M270.48 56.79 C184.4 55.68, 97.02 54.55, 0 56.79 M0 56.79 C2 44.35, -0.58 30.21, 0 0 M0 56.79 C-1.33 36.81, -0.81 15.08, 0 0" stroke="#000000" stroke-width="1" fill="none"></path></g><g transform="translate(2445.440711430425 1421.44878389383) rotate(0 102.35832977294922 20.77549319760311)"><text x="102.35832977294922" y="29.78433739040073" font-family="Virgil, Segoe UI Emoji" font-size="31.461628355094863px" fill="#000000" text-anchor="middle" style="white-space: pre;" direction="ltr" dominant-baseline="alphabetic">ReviewService</text></g><g stroke-linecap="round" transform="translate(2415.2151373427605 1539.087154434745) rotate(0 135.23994564735602 28.39567663030823)"><path d="M-1.64 -1.89 L270.08 -1.73 L269.35 57.82 L-0.11 55" stroke="none" stroke-width="0" fill="#b2f2bb"></path><path d="M0 0 C71.37 -1.17, 140.47 0.54, 270.48 0 M0 0 C108.69 0.79, 215.52 0.79, 270.48 0 M270.48 0 C270.38 18.69, 268.61 37.97, 270.48 56.79 M270.48 0 C271.12 12.87, 271.36 24.38, 270.48 56.79 M270.48 56.79 C210.9 57.2, 149.49 59.19, 0 56.79 M270.48 56.79 C172.05 54.4, 74.19 55.65, 0 56.79 M0 56.79 C1.57 38.31, 2.09 14.85, 0 0 M0 56.79 C0.71 36.98, 0.71 14.61, 0 0" stroke="#000000" stroke-width="1" fill="none"></path></g><g transform="translate(2446.1134158148234 1542.2986851906146) rotate(0 104.34166717529297 20.775493197603055)"><text x="104.34166717529297" y="29.78433739040073" font-family="Virgil, Segoe UI Emoji" font-size="31.461628355094863px" fill="#000000" text-anchor="middle" style="white-space: pre;" direction="ltr" dominant-baseline="alphabetic">SearchService</text></g><g stroke-linecap="round" transform="translate(2342.105873664471 1975.7256092647021) rotate(0 146.59623778388263 30.780102309308177)"><path d="M-1.13 1.03 L293.08 -1.79 L293.28 62.2 L0.66 62.68" stroke="none" stroke-width="0" fill="#b2f2bb"></path><path d="M0 0 C61.76 -0.22, 119.72 0.77, 293.19 0 M0 0 C73.31 0.78, 145.67 1.17, 293.19 0 M293.19 0 C291.15 19.97, 293.07 40.28, 293.19 61.56 M293.19 0 C292.88 20.46, 294.16 39.89, 293.19 61.56 M293.19 61.56 C218.11 63.53, 139.94 62.52, 0 61.56 M293.19 61.56 C229.87 62.84, 165.92 63.71, 0 61.56 M0 61.56 C0.78 37.4, -1.39 15.65, 0 0 M0 61.56 C-1.13 36, -0.51 11.45, 0 0" stroke="#000000" stroke-width="1" fill="none"></path></g><g transform="translate(2300.1272220753717 1988.764523988726) rotate(0 188.57488937298217 22.520041148306973)"><text x="188.57488937298217" y="32.28537090442061" font-family="Virgil, Segoe UI Emoji" font-size="34.10350639623908px" fill="#000000" text-anchor="middle" style="white-space: pre;" direction="ltr" dominant-baseline="alphabetic">OrderProcessingService</text></g><g stroke-linecap="round"><g transform="translate(2194.9882703303156 1627.4018739238575) rotate(0 -11.776353151486319 55.80959929884693)" fill-rule="evenodd"><path d="M-148.23 20.87 C-148.23 20.87, -148.23 20.87, -148.23 20.87 M-148.23 20.87 C-148.23 20.87, -148.23 20.87, -148.23 20.87 M-148.49 27.27 C-147.45 25.86, -145.41 24.54, -141.93 19.72 M-148.49 27.27 C-145.75 24.89, -143.07 21.53, -141.93 19.72 M-148.1 32.91 C-144.02 28.07, -140.3 25.71, -136.29 19.33 M-148.1 32.91 C-144.3 27.67, -139.1 23.23, -136.29 19.33 M-148.36 39.31 C-142.46 33.04, -136.52 26.62, -129.99 18.18 M-148.36 39.31 C-144.44 33.35, -138.97 29.52, -129.99 18.18 M-148.62 45.71 C-139.63 36.68, -133.54 30.11, -123.69 17.03 M-148.62 45.71 C-138.04 35.66, -129.11 22.89, -123.69 17.03 M-148.88 52.11 C-142.04 42.32, -133.12 35.37, -118.05 16.63 M-148.88 52.11 C-141 43.15, -132.96 34.93, -118.05 16.63 M-149.14 58.5 C-141.02 45.24, -128.02 35.97, -111.75 15.49 M-149.14 58.5 C-138.73 45.92, -128.1 32.99, -111.75 15.49 M-149.4 64.9 C-136.34 49.29, -123.68 36.56, -106.1 15.09 M-149.4 64.9 C-138.23 52.02, -128.02 39.43, -106.1 15.09 M-149.67 71.3 C-131.95 50.44, -117.11 33.26, -99.81 13.94 M-149.67 71.3 C-129.61 48.52, -110.97 25.53, -99.81 13.94 M-149.27 76.94 C-128.9 51.35, -106.63 26.78, -93.51 12.79 M-149.27 76.94 C-136.46 63.89, -126.34 48.98, -93.51 12.79 M-149.53 83.34 C-126.47 58.53, -106.71 33.18, -87.86 12.4 M-149.53 83.34 C-134.03 64.2, -116.29 45.21, -87.86 12.4 M-147.17 86.72 C-132.74 71.25, -118.83 52.21, -81.56 11.25 M-147.17 86.72 C-128.49 65.05, -108.15 41.82, -81.56 11.25 M-142.18 87.08 C-128.23 71.32, -113.6 52.7, -75.92 10.85 M-142.18 87.08 C-125.04 67.48, -107.46 48.66, -75.92 10.85 M-137.85 88.19 C-118.64 68.89, -101.54 46.96, -69.62 9.7 M-137.85 88.19 C-112.21 60.09, -87.03 29.47, -69.62 9.7 M-133.52 89.31 C-110.21 66.23, -90.21 40.66, -63.32 8.56 M-133.52 89.31 C-112.7 65.11, -91.57 41.21, -63.32 8.56 M-129.19 90.42 C-107.9 68.94, -91.59 45.86, -57.68 8.16 M-129.19 90.42 C-108.9 66.5, -88 42.29, -57.68 8.16 M-124.2 90.78 C-106.07 67.7, -85.89 45.14, -51.38 7.01 M-124.2 90.78 C-97.97 62.13, -72.47 33.48, -51.38 7.01 M-119.87 91.9 C-90.77 58.79, -61.11 24.5, -45.74 6.62 M-119.87 91.9 C-105.64 73.79, -88.09 54.11, -45.74 6.62 M-115.54 93.01 C-95.03 69.15, -78.58 48.79, -39.44 5.47 M-115.54 93.01 C-89.28 62.93, -62.53 31.94, -39.44 5.47 M-110.55 93.37 C-78.1 57.3, -47.59 23.23, -33.14 4.32 M-110.55 93.37 C-87.41 67.9, -66.17 40.79, -33.14 4.32 M-106.22 94.49 C-84.57 69.95, -66.13 49.81, -27.5 3.92 M-106.22 94.49 C-88.1 74.13, -71.05 54.02, -27.5 3.92 M-101.89 95.6 C-73.69 63.97, -49.81 32.51, -21.2 2.77 M-101.89 95.6 C-70.08 61.02, -39.37 25.22, -21.2 2.77 M-96.91 95.96 C-65.44 62.45, -34.02 26.11, -15.55 2.38 M-96.91 95.96 C-69.16 61.41, -40.83 28.98, -15.55 2.38 M-92.57 97.08 C-58.53 59.95, -27.54 22, -9.25 1.23 M-92.57 97.08 C-64.4 65.53, -36.25 33.33, -9.25 1.23 M-88.24 98.19 C-56.32 61.12, -24.76 27.4, -3.61 0.84 M-88.24 98.19 C-67.7 74.75, -49.39 52.76, -3.61 0.84 M-83.91 99.31 C-59.96 70.89, -36.13 45.41, 2.03 0.44 M-83.91 99.31 C-57.84 69.2, -32 38.69, 2.03 0.44 M-78.93 99.67 C-52.96 72.91, -28.78 42.95, 6.36 1.56 M-78.93 99.67 C-58 76.23, -36.35 52.37, 6.36 1.56 M-74.59 100.78 C-54.6 75.01, -32.46 50.3, 10.69 2.67 M-74.59 100.78 C-54.69 78.31, -34.38 53.68, 10.69 2.67 M-70.26 101.9 C-49.86 81.72, -32.93 60.04, 15.68 3.03 M-70.26 101.9 C-46.61 75.5, -21.31 47.32, 15.68 3.03 M-65.28 102.26 C-43.43 76.83, -17.75 50.18, 20.01 4.15 M-65.28 102.26 C-32.31 65.34, -1.16 27.71, 20.01 4.15 M-60.95 103.37 C-27.13 64.56, 4.97 26.79, 24.34 5.26 M-60.95 103.37 C-35.42 72.79, -9.07 43.24, 24.34 5.26 M-56.61 104.49 C-37.21 83.47, -17.29 60.02, 29.33 5.62 M-56.61 104.49 C-23.06 66.85, 9.84 27.18, 29.33 5.62 M-52.28 105.6 C-31.73 83.17, -11.9 58.14, 33.66 6.74 M-52.28 105.6 C-32.72 83.12, -12.65 60.8, 33.66 6.74 M-47.3 105.96 C-18.98 74.98, 7.71 39.81, 38.65 7.1 M-47.3 105.96 C-13.84 67.63, 19.76 28.96, 38.65 7.1 M-42.97 107.08 C-12.91 70.74, 17.44 38.03, 42.98 8.21 M-42.97 107.08 C-24.67 84.97, -5.41 63.64, 42.98 8.21 M-38.63 108.19 C-10.72 73.32, 22.25 39.7, 47.31 9.32 M-38.63 108.19 C-9.16 74.96, 21.12 41.87, 47.31 9.32 M-33.65 108.55 C-7.48 76.53, 20.75 44.53, 52.3 9.68 M-33.65 108.55 C-1.53 72.62, 28.99 37.92, 52.3 9.68 M-29.32 109.67 C0.27 77, 30.6 42.24, 56.63 10.8 M-29.32 109.67 C-5.2 82.41, 18.49 54.04, 56.63 10.8 M-24.99 110.78 C-3.35 83.63, 16.71 60.79, 60.96 11.91 M-24.99 110.78 C-5.67 88.6, 12.75 67.26, 60.96 11.91 M-20.65 111.9 C9.8 79.23, 35.35 45.77, 65.95 12.27 M-20.65 111.9 C0.73 88.53, 22.86 63.08, 65.95 12.27 M-15.01 111.5 C13.31 78.73, 40.82 50.17, 70.28 13.39 M-15.01 111.5 C9.99 82.83, 36.29 53.64, 70.28 13.39 M-8.71 110.35 C9.46 93.22, 27.99 73.26, 75.26 13.75 M-8.71 110.35 C23.14 74.66, 55.57 37.79, 75.26 13.75 M-1.76 108.45 C29.83 70.24, 62.6 36.88, 79.59 14.86 M-1.76 108.45 C24.71 77.07, 52.38 44.59, 79.59 14.86 M4.54 107.3 C22.19 85.99, 45.97 61.86, 83.92 15.98 M4.54 107.3 C21.12 87.88, 38.87 67.7, 83.92 15.98 M10.84 106.15 C39.89 72.36, 68.22 39.85, 88.91 16.34 M10.84 106.15 C29.06 85.65, 48.44 62.42, 88.91 16.34 M17.14 105 C35.34 86.32, 52.24 63.95, 93.24 17.45 M17.14 105 C46.11 70.39, 76.04 35.19, 93.24 17.45 M23.44 103.85 C46.9 78.54, 67.8 53.68, 97.57 18.57 M23.44 103.85 C51.13 73.14, 78.34 41.78, 97.57 18.57 M29.74 102.7 C48.04 78.2, 68.37 59.85, 102.56 18.93 M29.74 102.7 C54.11 75.11, 80.64 46.21, 102.56 18.93 M36.04 101.55 C51.28 83.88, 63.74 66.92, 106.89 20.04 M36.04 101.55 C64.07 70.99, 90.27 38.46, 106.89 20.04 M42.34 100.4 C67.53 70.8, 94.96 41.6, 111.88 20.4 M42.34 100.4 C68.58 67.33, 97.71 36.61, 111.88 20.4 M48.64 99.25 C70.05 78.29, 87.16 53.81, 116.21 21.52 M48.64 99.25 C66.3 77.92, 83.54 58.63, 116.21 21.52 M54.93 98.1 C75.68 72.54, 97.13 48.91, 120.54 22.63 M54.93 98.1 C73.3 76.26, 93.59 55.7, 120.54 22.63 M61.23 96.96 C86.84 69.7, 110.64 39.72, 125.53 22.99 M61.23 96.96 C79.34 74.72, 97.36 54.22, 125.53 22.99 M67.53 95.81 C90.05 70.22, 112.86 41.85, 126.58 27.88 M67.53 95.81 C81.67 81.12, 96.58 63.38, 126.58 27.88 M73.83 94.66 C95.36 69.07, 116.58 44.19, 126.32 34.28 M73.83 94.66 C93.51 71.63, 114.64 47.99, 126.32 34.28 M80.13 93.51 C89.22 82.27, 99.51 71.56, 126.06 40.68 M80.13 93.51 C91.77 78.82, 104.82 64.45, 126.06 40.68 M86.43 92.36 C97.08 78.12, 110.36 64.88, 125.14 47.83 M86.43 92.36 C96.9 81.4, 106.01 68.15, 125.14 47.83 M92.73 91.21 C100.18 80.31, 110.1 71.58, 124.88 54.23 M92.73 91.21 C103.53 78.53, 114.03 66.82, 124.88 54.23 M99.03 90.06 C108.46 79.03, 119.05 67.65, 124.62 60.63 M99.03 90.06 C104.87 83.31, 113.25 74.61, 124.62 60.63 M105.33 88.91 C110.34 80.76, 118.26 74.79, 124.35 67.02 M105.33 88.91 C110.81 81.34, 117.99 73.78, 124.35 67.02 M111.63 87.76 C117.74 83, 122.81 77.68, 124.09 73.42 M111.63 87.76 C114.85 83.54, 117.21 80.94, 124.09 73.42 M117.93 86.61 C119.32 84.6, 120.72 82.1, 123.83 79.82 M117.93 86.61 C120.16 84.48, 121.41 82.5, 123.83 79.82" stroke="#be4bdb" stroke-width="0.5" fill="none"></path><path d="M0 0 C-46.61 5.69, -92.1 14.25, -148.06 20.68 M0 0 C-37.81 4.59, -75.16 9.91, -148.06 20.68 M-148.06 20.68 C-148.05 42.88, -150.87 60.41, -149.8 85.55 M-148.06 20.68 C-148.78 43.42, -148.14 68.3, -149.8 85.55 M-149.8 85.55 C-111.37 93.31, -67.87 103.39, -18.06 111.62 M-149.8 85.55 C-116.34 92.05, -85.44 98.27, -18.06 111.62 M-18.06 111.62 C21.55 104.92, 55.92 95.26, 123.21 85.24 M-18.06 111.62 C10.48 107.93, 40.05 101.1, 123.21 85.24 M123.21 85.24 C125.06 64.81, 124.23 47.94, 126.25 22.92 M123.21 85.24 C124.66 64.24, 125.48 41.35, 126.25 22.92 M126.25 22.92 C80.43 16.61, 33.96 6.21, 0 0 M126.25 22.92 C85.72 16.05, 45.26 8.1, 0 0 M0 0 C0 0, 0 0, 0 0 M0 0 C0 0, 0 0, 0 0" stroke="#881fa3" stroke-width="1" fill="none"></path></g></g><mask></mask><g transform="translate(2069.047509143036 1656.6510553552791) rotate(0 120.1500015258789 22.5)"><text x="0" y="31.536" font-family="Virgil, Segoe UI Emoji" font-size="36px" fill="#1e1e1e" text-anchor="start" style="white-space: pre;" direction="ltr" dominant-baseline="alphabetic">API Gateway</text></g><g stroke-linecap="round"><g transform="translate(2427.613150353277 1329.9579155859496) rotate(0 -94.95349387604494 160.6905280979222)"><path d="M0.27 -0.53 C-31.37 53.15, -159.25 267.98, -190.9 321.48 M-1.05 1.8 C-32.23 55.75, -157.17 269.83, -188.72 323.06" stroke="#e03131" stroke-width="2" fill="none"></path></g><g transform="translate(2427.613150353277 1329.9579155859496) rotate(0 -94.95349387604494 160.6905280979222)"><path d="M-184.19 298.48 C-186.17 302.04, -186.08 309.28, -188.72 323.06 M-184.19 298.48 C-184.84 304.02, -185.47 309.44, -188.72 323.06" stroke="#e03131" stroke-width="2" fill="none"></path></g><g transform="translate(2427.613150353277 1329.9579155859496) rotate(0 -94.95349387604494 160.6905280979222)"><path d="M-169.45 307.14 C-174.51 308.9, -177.54 314.3, -188.72 323.06 M-169.45 307.14 C-173.38 310.67, -177.25 314.19, -188.72 323.06" stroke="#e03131" stroke-width="2" fill="none"></path></g></g><mask></mask><g stroke-linecap="round"><g transform="translate(2110.216156837546 1473.3841720700457) rotate(0 29.216459654167693 80.34526404896121)"><path d="M-1 0.09 C8.73 26.8, 48.62 133.11, 58.65 159.72 M0.68 -0.9 C10.25 25.97, 48.12 133.83, 57.82 160.75" stroke="#1971c2" stroke-width="2" fill="none"></path></g><g transform="translate(2110.216156837546 1473.3841720700457) rotate(0 29.216459654167693 80.34526404896121)"><path d="M41.9 141.47 C47.11 148.19, 50.47 155.37, 57.82 160.75 M41.9 141.47 C46.02 145.96, 49.8 149.12, 57.82 160.75" stroke="#1971c2" stroke-width="2" fill="none"></path></g><g transform="translate(2110.216156837546 1473.3841720700457) rotate(0 29.216459654167693 80.34526404896121)"><path d="M58.02 135.75 C58 144.18, 56.16 153.2, 57.82 160.75 M58.02 135.75 C58.56 141.54, 58.75 145.97, 57.82 160.75" stroke="#1971c2" stroke-width="2" fill="none"></path></g></g><mask></mask><g stroke-opacity="0.9" fill-opacity="0.9" stroke-linecap="round" transform="translate(2198.87514743459 1741.6778398808863) rotate(89.06080905426445 34.84695248648285 100.89614054636911)"><path d="M-0.23 -1.85 L70.35 1.1 L69.87 200.28 L1.31 202.43" stroke="none" stroke-width="0" fill="#eeeeee"></path><path d="M0 0 C13.5 1.2, 28.68 0.24, 69.69 0 M0 0 C22.99 -1.07, 43.65 0.47, 69.69 0 M69.69 0 C68.71 72.06, 71.18 141.14, 69.69 201.79 M69.69 0 C68.11 44.6, 69.06 87.35, 69.69 201.79 M69.69 201.79 C48.97 200.62, 26 201.67, 0 201.79 M69.69 201.79 C52.21 201.93, 32.88 201.55, 0 201.79 M0 201.79 C2.5 145.15, -0.03 88.79, 0 0 M0 201.79 C-1.24 134.51, -0.29 68.21, 0 0" stroke="#000000" stroke-width="1" fill="none"></path></g><g stroke-linecap="round" transform="translate(2246.838808096809 1850.778810484053) rotate(89.06080905426445 9.231590669814409 8.947541726127838)"><path d="M10.84 0.44 C12.69 0.55, 14.97 1.57, 16.26 2.94 C17.55 4.31, 18.57 6.73, 18.57 8.66 C18.56 10.6, 17.44 13.06, 16.24 14.56 C15.03 16.06, 13.24 17.36, 11.34 17.68 C9.43 18, 6.61 17.43, 4.81 16.48 C3 15.52, 1.21 13.78, 0.5 11.95 C-0.22 10.13, -0.16 7.27, 0.54 5.52 C1.23 3.76, 2.89 2.26, 4.67 1.44 C6.45 0.61, 10.16 0.83, 11.2 0.58 C12.24 0.33, 10.91 -0.08, 10.9 -0.06 M10.4 -0.59 C12.24 -0.7, 14.19 0.74, 15.49 2.23 C16.79 3.72, 18.04 6.35, 18.2 8.34 C18.35 10.34, 17.44 12.59, 16.4 14.21 C15.37 15.83, 13.84 17.45, 11.99 18.07 C10.14 18.68, 7.04 18.81, 5.3 17.88 C3.55 16.94, 2.47 14.27, 1.52 12.46 C0.57 10.65, -0.69 8.75, -0.39 7.02 C-0.09 5.28, 1.62 3.11, 3.31 2.05 C4.99 0.99, 8.55 1.08, 9.73 0.64 C10.91 0.21, 10.49 -0.64, 10.38 -0.55" stroke="none" stroke-width="0" fill="#868e96"></path><path d="M9.77 0.4 C11.56 0.26, 13.54 0.7, 15.03 1.97 C16.52 3.25, 18.35 6.11, 18.7 8.05 C19.05 9.98, 18.29 11.92, 17.11 13.57 C15.93 15.21, 13.46 17.31, 11.61 17.92 C9.76 18.53, 7.82 18.1, 5.99 17.24 C4.16 16.38, 1.65 14.5, 0.62 12.75 C-0.41 11, -0.76 8.51, -0.19 6.74 C0.37 4.96, 2.38 3.21, 4.01 2.11 C5.65 1.01, 8.55 0.38, 9.62 0.14 C10.68 -0.11, 10.3 0.57, 10.4 0.62 M11.14 0.87 C13.12 1.04, 15.52 1.5, 16.63 2.72 C17.75 3.93, 17.92 6.28, 17.85 8.16 C17.78 10.04, 17.43 12.33, 16.21 13.99 C14.98 15.65, 12.41 17.79, 10.49 18.13 C8.56 18.48, 6.29 17.03, 4.64 16.06 C3 15.1, 1.26 13.93, 0.62 12.32 C-0.03 10.71, 0.21 8.27, 0.78 6.38 C1.34 4.49, 2.3 1.98, 4.01 1 C5.71 0.01, 9.9 0.7, 11.01 0.47 C12.11 0.24, 10.67 -0.55, 10.64 -0.39" stroke="#000000" stroke-width="1" fill="none"></path></g><g stroke-linecap="round" transform="translate(2249.1392250174786 1814.672494166467) rotate(89.06080905426445 9.231590669814409 8.947541726127838)"><path d="M10.65 -0.08 C12.52 0, 14.99 1.39, 16.27 2.85 C17.55 4.31, 18.23 6.74, 18.33 8.68 C18.42 10.62, 18.04 13.02, 16.84 14.48 C15.64 15.95, 13.17 17.09, 11.15 17.45 C9.12 17.81, 6.46 17.61, 4.71 16.65 C2.95 15.7, 1.32 13.47, 0.64 11.74 C-0.04 10.01, -0.05 7.94, 0.63 6.27 C1.3 4.6, 2.97 2.81, 4.69 1.73 C6.4 0.64, 9.71 0.02, 10.93 -0.23 C12.15 -0.49, 11.96 -0.05, 11.99 0.19 M10.52 -0.12 C12.26 0.21, 14.71 1.92, 15.95 3.45 C17.18 4.98, 17.82 7.12, 17.93 9.06 C18.03 10.99, 17.76 13.51, 16.58 15.07 C15.39 16.63, 12.67 18.23, 10.8 18.44 C8.93 18.65, 7.16 17.33, 5.36 16.32 C3.56 15.31, 0.88 14.02, 0 12.36 C-0.89 10.71, -0.67 8.12, 0.06 6.38 C0.78 4.65, 2.51 3.11, 4.37 1.94 C6.23 0.77, 10.29 -0.41, 11.22 -0.64 C12.15 -0.88, 9.96 0.16, 9.94 0.52" stroke="none" stroke-width="0" fill="#868e96"></path><path d="M10.02 -0.31 C11.93 -0.2, 14.95 1.73, 16.37 3.18 C17.8 4.63, 18.6 6.44, 18.56 8.39 C18.52 10.33, 17.33 13.3, 16.16 14.85 C14.98 16.41, 13.44 17.44, 11.51 17.72 C9.57 18, 6.4 17.5, 4.53 16.56 C2.65 15.62, 0.89 13.76, 0.28 12.08 C-0.34 10.41, 0.19 8.26, 0.82 6.49 C1.45 4.73, 2.31 2.49, 4.04 1.5 C5.77 0.51, 9.93 0.81, 11.21 0.55 C12.49 0.3, 11.74 -0.08, 11.72 -0.03 M8.65 -0.37 C10.34 -0.92, 12.23 -0.21, 13.78 0.82 C15.33 1.86, 17.38 3.81, 17.96 5.83 C18.53 7.86, 18.03 11.23, 17.24 12.98 C16.45 14.72, 14.94 15.5, 13.23 16.32 C11.53 17.14, 8.9 18.15, 7.03 17.87 C5.16 17.59, 3.27 16.26, 2.01 14.62 C0.75 12.99, -0.66 10.01, -0.52 8.08 C-0.38 6.16, 1.39 4.53, 2.84 3.08 C4.29 1.62, 7.23 -0.24, 8.18 -0.64 C9.13 -1.05, 8.49 0.47, 8.53 0.64" stroke="#000000" stroke-width="1" fill="none"></path></g><g stroke-linecap="round" transform="translate(2196.254024811742 1852.0998907971698) rotate(89.06080905426445 9.231590669814409 8.947541726127838)"><path d="M10.82 -0.07 C12.67 0.13, 14.76 1.57, 16.1 3.04 C17.44 4.52, 18.8 6.89, 18.87 8.78 C18.93 10.66, 17.82 12.87, 16.48 14.34 C15.15 15.81, 12.81 17.27, 10.85 17.6 C8.89 17.92, 6.41 17.17, 4.73 16.29 C3.04 15.41, 1.4 13.95, 0.74 12.3 C0.08 10.66, 0.18 8.33, 0.77 6.42 C1.36 4.5, 2.49 1.91, 4.3 0.83 C6.1 -0.26, 10.33 -0.06, 11.57 -0.1 C12.82 -0.13, 11.79 0.34, 11.75 0.61 M7.18 0.6 C8.93 0.21, 11.31 0.48, 13.1 1.41 C14.9 2.35, 17.18 4.36, 17.95 6.21 C18.72 8.06, 18.28 10.86, 17.73 12.51 C17.17 14.15, 16.35 15.18, 14.6 16.09 C12.85 17, 9.35 18.1, 7.23 17.95 C5.11 17.79, 3.11 16.52, 1.89 15.17 C0.68 13.81, -0.17 11.9, -0.05 9.81 C0.07 7.72, 1.48 4.2, 2.61 2.63 C3.75 1.07, 5.83 0.72, 6.75 0.42 C7.66 0.13, 7.96 0.78, 8.09 0.87" stroke="none" stroke-width="0" fill="#868e96"></path><path d="M11.32 0.41 C13.28 0.68, 15.39 1.6, 16.52 3.13 C17.65 4.65, 18.09 7.59, 18.08 9.55 C18.08 11.51, 17.8 13.54, 16.5 14.86 C15.19 16.18, 12.32 17.23, 10.25 17.48 C8.17 17.73, 5.61 17.25, 4.05 16.35 C2.49 15.46, 1.5 13.87, 0.88 12.12 C0.27 10.36, -0.35 7.61, 0.36 5.84 C1.06 4.08, 3.16 2.52, 5.09 1.52 C7.02 0.52, 10.74 0.02, 11.93 -0.16 C13.12 -0.35, 12.38 0.14, 12.23 0.4 M10.9 -0.43 C12.66 -0.13, 15.4 1.34, 16.58 3.08 C17.77 4.82, 18.14 8.1, 18.01 10.01 C17.88 11.92, 17.1 13.18, 15.79 14.53 C14.49 15.88, 12.1 17.72, 10.18 18.09 C8.26 18.46, 6 17.92, 4.27 16.76 C2.54 15.6, 0.34 12.98, -0.2 11.13 C-0.73 9.27, 0.18 7.43, 1.07 5.61 C1.96 3.79, 3.36 1.01, 5.15 0.19 C6.93 -0.63, 10.7 0.74, 11.76 0.69 C12.83 0.64, 11.53 -0.23, 11.54 -0.11" stroke="#000000" stroke-width="1" fill="none"></path></g><g stroke-linecap="round" transform="translate(2298.4137047921013 1849.7433328822835) rotate(89.06080905426445 9.231590669814409 8.947541726127838)"><path d="M8.27 -0.03 C10.18 -0.29, 13.24 0.48, 14.91 1.54 C16.57 2.61, 17.81 4.5, 18.25 6.34 C18.68 8.17, 18.36 10.85, 17.52 12.56 C16.67 14.27, 14.92 15.71, 13.17 16.58 C11.42 17.45, 8.88 18.13, 7.01 17.79 C5.14 17.44, 3.14 16.2, 1.94 14.53 C0.74 12.86, -0.37 9.8, -0.19 7.77 C0 5.73, 1.53 3.61, 3.05 2.34 C4.58 1.06, 7.88 0.42, 8.97 0.12 C10.06 -0.17, 9.68 0.47, 9.6 0.59 M8.01 0.35 C9.93 0.12, 13.1 1.04, 14.75 2.23 C16.4 3.41, 17.36 5.78, 17.92 7.46 C18.47 9.15, 19.02 10.72, 18.09 12.35 C17.17 13.98, 14.35 16.34, 12.39 17.25 C10.42 18.17, 8.11 18.29, 6.3 17.85 C4.5 17.41, 2.49 16.37, 1.55 14.61 C0.61 12.86, 0.56 9.28, 0.65 7.31 C0.75 5.34, 0.72 3.91, 2.14 2.79 C3.57 1.66, 8.15 0.98, 9.2 0.54 C10.26 0.09, 8.58 0.04, 8.5 0.12" stroke="none" stroke-width="0" fill="#868e96"></path><path d="M7.53 -0.03 C9.24 -0.47, 11.53 0.57, 13.29 1.53 C15.06 2.5, 17.44 4.07, 18.15 5.73 C18.86 7.4, 18.32 9.75, 17.56 11.51 C16.8 13.28, 15.17 15.25, 13.61 16.34 C12.05 17.43, 10.14 18.29, 8.21 18.06 C6.28 17.83, 3.34 16.38, 2.03 14.96 C0.71 13.54, 0.24 11.56, 0.32 9.55 C0.4 7.54, 1.21 4.51, 2.48 2.91 C3.75 1.31, 7.09 0.36, 7.95 -0.03 C8.8 -0.43, 7.56 0.32, 7.62 0.54 M7.79 -0.56 C9.66 -0.75, 11.99 0.73, 13.69 1.74 C15.39 2.75, 17.28 3.7, 17.97 5.5 C18.66 7.3, 18.52 10.57, 17.83 12.53 C17.14 14.49, 15.66 16.44, 13.82 17.26 C11.98 18.09, 8.72 17.87, 6.78 17.46 C4.85 17.05, 3.36 16.4, 2.21 14.81 C1.07 13.23, -0.15 9.86, -0.08 7.95 C-0.01 6.05, 1.26 4.79, 2.61 3.38 C3.96 1.98, 7.03 0, 8 -0.48 C8.98 -0.96, 8.37 0.24, 8.45 0.51" stroke="#000000" stroke-width="1" fill="none"></path></g><g stroke-linecap="round"><g transform="translate(2217.2560926572705 1822.4657398439958) rotate(89.06080905426445 13.341544512779137 18.790988385595142)"><path d="M0 0 C10.52 14.79, 20.18 28.07, 26.68 37.58 M0 0 C6.18 7.94, 11.83 16.38, 26.68 37.58" stroke="#000000" stroke-width="1" fill="none"></path></g><g transform="translate(2217.2560926572705 1822.4657398439958) rotate(89.06080905426445 13.341544512779137 18.790988385595142)"><path d="M7.83 24.33 C15.51 29.9, 22.21 34, 26.68 37.58 M7.83 24.33 C12.15 26.84, 16.04 29.81, 26.68 37.58" stroke="#000000" stroke-width="1" fill="none"></path></g><g transform="translate(2217.2560926572705 1822.4657398439958) rotate(89.06080905426445 13.341544512779137 18.790988385595142)"><path d="M20.75 15.31 C23.51 24.24, 25.34 31.74, 26.68 37.58 M20.75 15.31 C22.21 19.88, 23.2 24.88, 26.68 37.58" stroke="#000000" stroke-width="1" fill="none"></path></g></g><mask></mask><g stroke-linecap="round"><g transform="translate(2249.4265909534142 1841.1010590703272) rotate(89.06080905426445 8.305651919865568 0.6603664148592543)"><path d="M0 0 C3.86 -0.09, 6.73 1.26, 16.61 1.32 M0 0 C5.76 0.2, 11.82 1.34, 16.61 1.32" stroke="#000000" stroke-width="1" fill="none"></path></g><g transform="translate(2249.4265909534142 1841.1010590703272) rotate(89.06080905426445 8.305651919865568 0.6603664148592543)"><path d="M8.65 3.77 C10.49 3.03, 11.85 3.02, 16.61 1.32 M8.65 3.77 C11.4 2.74, 14.31 2.19, 16.61 1.32" stroke="#000000" stroke-width="1" fill="none"></path></g><g transform="translate(2249.4265909534142 1841.1010590703272) rotate(89.06080905426445 8.305651919865568 0.6603664148592543)"><path d="M8.94 -1.93 C10.73 -1.4, 12.03 -0.15, 16.61 1.32 M8.94 -1.93 C11.59 -0.89, 14.39 0.62, 16.61 1.32" stroke="#000000" stroke-width="1" fill="none"></path></g></g><mask></mask><g stroke-linecap="round"><g transform="translate(2270.4068353876282 1857.5413634906577) rotate(89.06080905426445 12.700208522359219 -16.264867835951577)"><path d="M0 0 C8.09 -10.45, 18.34 -22.62, 25.4 -32.53 M0 0 C5.37 -6.59, 11.43 -14.32, 25.4 -32.53" stroke="#000000" stroke-width="1" fill="none"></path></g><g transform="translate(2270.4068353876282 1857.5413634906577) rotate(89.06080905426445 12.700208522359219 -16.264867835951577)"><path d="M19.16 -12.86 C20.57 -18.86, 24.12 -26.53, 25.4 -32.53 M19.16 -12.86 C20.33 -16.73, 22.21 -21.66, 25.4 -32.53" stroke="#000000" stroke-width="1" fill="none"></path></g><g transform="translate(2270.4068353876282 1857.5413634906577) rotate(89.06080905426445 12.700208522359219 -16.264867835951577)"><path d="M7.98 -21.47 C13.3 -24.44, 20.76 -29.1, 25.4 -32.53 M7.98 -21.47 C11.55 -23.42, 15.87 -26.47, 25.4 -32.53" stroke="#000000" stroke-width="1" fill="none"></path></g></g><mask></mask><g transform="translate(2126.7359797179497 1823.8114578076347) rotate(89.06080905426445 31.5 20)"><text x="31.5" y="14.483016913171605" font-family="Virgil, Segoe UI Emoji" font-size="14.751291676011752px" fill="#000000" text-anchor="middle" style="white-space: pre;" direction="ltr" dominant-baseline="alphabetic">Load</text><text x="31.5" y="34.4830169131716" font-family="Virgil, Segoe UI Emoji" font-size="14.751291676011752px" fill="#000000" text-anchor="middle" style="white-space: pre;" direction="ltr" dominant-baseline="alphabetic">Balancer</text></g><g transform="translate(2205.8336611602763 1708.4438701967583) rotate(0 0.00004999999998744897 0.00004999999998744897)" stroke="none"><path fill="#e03131" d="M 3.14,-3.14 Q 3.14,-3.14 3.55,-2.55 3.97,-1.97 4.18,-1.28 4.40,-0.59 4.38,0.11 4.36,0.83 4.11,1.51 3.86,2.18 3.41,2.74 2.96,3.30 2.36,3.69 1.75,4.07 1.05,4.25 0.36,4.42 -0.35,4.36 -1.07,4.30 -1.73,4.02 -2.39,3.74 -2.92,3.26 -3.46,2.78 -3.81,2.15 -4.16,1.53 -4.30,0.82 -4.43,0.11 -4.34,-0.59 -4.24,-1.30 -3.92,-1.94 -3.60,-2.59 -3.09,-3.09 -2.59,-3.60 -1.94,-3.92 -1.30,-4.24 -0.59,-4.34 0.12,-4.43 0.82,-4.30 1.53,-4.16 2.15,-3.81 2.78,-3.46 3.26,-2.92 3.74,-2.39 4.02,-1.73 4.31,-1.07 4.36,-0.35 4.42,0.36 4.25,1.05 4.07,1.75 3.69,2.36 3.30,2.96 2.74,3.41 2.18,3.86 1.51,4.11 0.83,4.36 0.11,4.38 -0.60,4.40 -1.28,4.18 -1.97,3.97 -2.55,3.55 -3.14,3.13 -3.14,3.14 -3.14,3.14 -3.47,2.71 -3.80,2.29 -4.02,1.80 -4.24,1.32 -4.33,0.79 -4.43,0.26 -4.40,-0.26 -4.36,-0.80 -4.20,-1.31 -4.04,-1.82 -3.77,-2.28 -3.49,-2.73 -3.11,-3.11 -2.73,-3.49 -2.28,-3.77 -1.82,-4.05 -1.31,-4.20 -0.80,-4.36 -0.26,-4.40 0.26,-4.43 0.79,-4.33 1.32,-4.24 1.80,-4.02 2.29,-3.80 2.71,-3.47 3.14,-3.14 3.14,-3.14 L 3.14,-3.14 Z"></path></g><g transform="translate(2293.48304012278 1845.230022213998) rotate(0 0.00004999999998744897 0.00004999999998744897)" stroke="none"><path fill="#e03131" d="M 3.14,-3.14 Q 3.14,-3.14 3.55,-2.55 3.97,-1.97 4.18,-1.28 4.40,-0.59 4.38,0.11 4.36,0.83 4.11,1.51 3.86,2.18 3.41,2.74 2.96,3.30 2.36,3.69 1.75,4.07 1.05,4.25 0.36,4.42 -0.35,4.36 -1.07,4.30 -1.73,4.02 -2.39,3.74 -2.92,3.26 -3.46,2.78 -3.81,2.15 -4.16,1.53 -4.30,0.82 -4.43,0.11 -4.34,-0.59 -4.24,-1.30 -3.92,-1.94 -3.60,-2.59 -3.09,-3.09 -2.59,-3.60 -1.94,-3.92 -1.30,-4.24 -0.59,-4.34 0.12,-4.43 0.82,-4.30 1.53,-4.16 2.15,-3.81 2.78,-3.46 3.26,-2.92 3.74,-2.39 4.02,-1.73 4.31,-1.07 4.36,-0.35 4.42,0.36 4.25,1.05 4.07,1.75 3.69,2.36 3.30,2.96 2.74,3.41 2.18,3.86 1.51,4.11 0.83,4.36 0.11,4.38 -0.60,4.40 -1.28,4.18 -1.97,3.97 -2.55,3.55 -3.14,3.13 -3.14,3.14 -3.14,3.14 -3.47,2.71 -3.80,2.29 -4.02,1.80 -4.24,1.32 -4.33,0.79 -4.43,0.26 -4.40,-0.26 -4.36,-0.80 -4.20,-1.31 -4.04,-1.82 -3.77,-2.28 -3.49,-2.73 -3.11,-3.11 -2.73,-3.49 -2.28,-3.77 -1.82,-4.05 -1.31,-4.20 -0.80,-4.36 -0.26,-4.40 0.26,-4.43 0.79,-4.33 1.32,-4.24 1.80,-4.02 2.29,-3.80 2.71,-3.47 3.14,-3.14 3.14,-3.14 L 3.14,-3.14 Z"></path></g><g stroke-linecap="round"><g transform="translate(2225.7539745608456 1711.0999119835008) rotate(0 101.18316050849586 138.33230600261254)"><path d="M0.65 -0.63 C8.54 19.26, 12.97 73.89, 46.76 120.28 C80.54 166.68, 177.58 251.54, 203.34 277.74 M-0.47 1.65 C7.34 21.13, 12.03 72.84, 45.95 118.56 C79.88 164.28, 177.24 249.84, 203.09 275.96" stroke="#e03131" stroke-width="2" fill="none"></path></g><g transform="translate(2225.7539745608456 1711.0999119835008) rotate(0 101.18316050849586 138.33230600261254)"><path d="M180.15 266.01 C184.88 268.82, 192.91 272.46, 203.09 275.96 M180.15 266.01 C188.66 269.32, 198.45 274.61, 203.09 275.96" stroke="#e03131" stroke-width="2" fill="none"></path></g><g transform="translate(2225.7539745608456 1711.0999119835008) rotate(0 101.18316050849586 138.33230600261254)"><path d="M191.91 253.6 C193.81 259.56, 198.91 266.28, 203.09 275.96 M191.91 253.6 C195.73 261.82, 200.94 271.95, 203.09 275.96" stroke="#e03131" stroke-width="2" fill="none"></path></g></g><mask></mask><g stroke-linecap="round"><g transform="translate(733.793155689054 158.32775866353825) rotate(0 282.5605808584719 195.3641516091779)"><path d="M1.4 -1.8 C79.22 0.38, 374.99 -50.74, 469.27 14.34 C563.56 79.42, 551.56 325.85, 567.09 388.7 M-1.28 3.39 C75.86 5.84, 371.93 -47.19, 466.54 17.37 C561.14 81.92, 550.5 327.87, 566.36 390.7" stroke="#2f9e44" stroke-width="2" fill="none"></path></g><g transform="translate(733.793155689054 158.32775866353825) rotate(0 282.5605808584719 195.3641516091779)"><path d="M553.98 367.64 C558.83 378.26, 562.44 383.59, 566.84 390.27 M555.46 369.29 C557.97 373.8, 560.96 378.72, 567.2 390.95" stroke="#2f9e44" stroke-width="2" fill="none"></path></g><g transform="translate(733.793155689054 158.32775866353825) rotate(0 282.5605808584719 195.3641516091779)"><path d="M570.98 365.75 C569.31 377.19, 566.38 383.24, 566.84 390.27 M572.45 367.4 C571.27 372.26, 570.54 377.59, 567.2 390.95" stroke="#2f9e44" stroke-width="2" fill="none"></path></g></g><mask></mask><g stroke-linecap="round"><g transform="translate(1813.2628747499352 944.1993741761632) rotate(0 299.116864893148 104.85646555294863)"><path d="M-1.11 1.97 C88.62 -0.15, 436.59 -50.02, 536.6 -13.66 C636.6 22.7, 589.02 180.63, 598.91 220.15 M3.48 0.57 C94.26 -1.22, 442.9 -48.52, 541.9 -11.46 C640.9 25.61, 588.57 184.55, 597.47 222.94" stroke="#2f9e44" stroke-width="2" fill="none"></path></g><g transform="translate(1813.2628747499352 944.1993741761632) rotate(0 299.116864893148 104.85646555294863)"><path d="M591.42 197.63 C589.81 205.21, 593.02 208.73, 599.39 222.22 M590.57 199.71 C593.2 207.53, 595.25 213.37, 598.25 223.47" stroke="#2f9e44" stroke-width="2" fill="none"></path></g><g transform="translate(1813.2628747499352 944.1993741761632) rotate(0 299.116864893148 104.85646555294863)"><path d="M608.5 198.41 C602.87 205.74, 602.05 209.08, 599.39 222.22 M607.65 200.49 C604.82 208.08, 601.42 213.67, 598.25 223.47" stroke="#2f9e44" stroke-width="2" fill="none"></path></g></g><mask></mask><g transform="translate(230.65905446344732 10) rotate(0 127.85832977294922 22.5)"><text x="127.85832977294922" y="31.536" font-family="Virgil, Segoe UI Emoji" font-size="36px" fill="#1971c2" text-anchor="middle" style="white-space: pre;" direction="ltr" dominant-baseline="alphabetic">Current State</text></g><g transform="translate(1130.279274998828 449.71835767383743) rotate(0 150.97500610351562 22.5)"><text x="150.97500610351562" y="31.536" font-family="Virgil, Segoe UI Emoji" font-size="36px" fill="#1971c2" text-anchor="middle" style="white-space: pre;" direction="ltr" dominant-baseline="alphabetic">Transition State</text></g><g transform="translate(2305.5232611097317 1036.4896101499176) rotate(0 101.55833435058594 22.5)"><text x="101.55833435058594" y="31.536" font-family="Virgil, Segoe UI Emoji" font-size="36px" fill="#1971c2" text-anchor="middle" style="white-space: pre;" direction="ltr" dominant-baseline="alphabetic">Final State</text></g></svg>